<svg xmlns="http://www.w3.org/2000/svg" xmlns:xlink="http://www.w3.org/1999/xlink" width="1080" zoomAndPan="magnify" viewBox="0 0 810 809.999993" height="1080" preserveAspectRatio="xMidYMid meet" version="1.0"><defs><clipPath id="fef0c54368"><path d="M 20.917969 212.957031 L 789.082031 212.957031 L 789.082031 597.042969 L 20.917969 597.042969 Z M 20.917969 212.957031 " clip-rule="nonzero"/></clipPath><clipPath id="95575c9106"><path d="M 277.109375 235.140625 C 316.367188 221.746094 361.265625 212.957031 405.207031 212.957031 C 449.148438 212.957031 491.433594 220.492188 530.402344 233.882812 C 531.230469 234.304688 532.0625 234.304688 532.890625 234.722656 C 679.226562 288.292969 787.011719 429.75 789.082031 582.597656 L 789.082031 597.042969 L 20.917969 597.042969 L 20.917969 582.609375 C 22.988281 428.914062 129.113281 287.453125 277.109375 235.140625 Z M 277.109375 235.140625 " clip-rule="nonzero"/></clipPath><clipPath id="7fb601ca7f"><path d="M 20.917969 212.957031 L 788.917969 212.957031 L 788.917969 596.957031 L 20.917969 596.957031 Z M 20.917969 212.957031 " clip-rule="nonzero"/></clipPath><clipPath id="f976dcdd49"><path d="M 277.109375 235.140625 C 316.363281 221.746094 361.261719 212.957031 405.207031 212.957031 C 449.148438 212.957031 491.433594 220.492188 530.398438 233.882812 C 531.230469 234.304688 532.058594 234.304688 532.886719 234.722656 C 679.222656 288.292969 787.007812 429.75 789.082031 582.597656 L 789.082031 597.039062 L 20.917969 597.039062 L 20.917969 582.605469 C 22.988281 428.914062 129.113281 287.453125 277.109375 235.140625 Z M 277.109375 235.140625 " clip-rule="nonzero"/></clipPath><clipPath id="af99224ffb"><path d="M 137.078125 428.210938 L 218.527344 428.210938 L 218.527344 592.878906 L 137.078125 592.878906 Z M 137.078125 428.210938 " clip-rule="nonzero"/></clipPath><clipPath id="21eda4bd31"><path d="M 177.800781 381.089844 L 259.25 381.089844 L 259.25 592.878906 L 177.800781 592.878906 Z M 177.800781 381.089844 " clip-rule="nonzero"/></clipPath><clipPath id="9f209c2ab1"><path d="M 345.230469 486.984375 L 478.085938 486.984375 L 478.085938 592.878906 L 345.230469 592.878906 Z M 345.230469 486.984375 " clip-rule="nonzero"/></clipPath><clipPath id="5ea4e37fe2"><path d="M 502.085938 428.210938 L 583.535156 428.210938 L 583.535156 592.878906 L 502.085938 592.878906 Z M 502.085938 428.210938 " clip-rule="nonzero"/></clipPath><clipPath id="428ad7eb7a"><path d="M 542.808594 381.089844 L 624.257812 381.089844 L 624.257812 592.878906 L 542.808594 592.878906 Z M 542.808594 381.089844 " clip-rule="nonzero"/></clipPath><clipPath id="9b32be181b"><path d="M 591.472656 428.210938 L 672.921875 428.210938 L 672.921875 592.878906 L 591.472656 592.878906 Z M 591.472656 428.210938 " clip-rule="nonzero"/></clipPath><clipPath id="118bb9deb7"><path d="M 283.03125 404.136719 L 291.5 404.136719 L 291.5 412.601562 L 283.03125 412.601562 Z M 283.03125 404.136719 " clip-rule="nonzero"/></clipPath><clipPath id="704213c506"><path d="M 287.265625 404.136719 C 284.925781 404.136719 283.03125 406.03125 283.03125 408.367188 C 283.03125 410.707031 284.925781 412.601562 287.265625 412.601562 C 289.605469 412.601562 291.5 410.707031 291.5 408.367188 C 291.5 406.03125 289.605469 404.136719 287.265625 404.136719 Z M 287.265625 404.136719 " clip-rule="nonzero"/></clipPath><clipPath id="de20673d6e"><path d="M 378.328125 447.152344 L 386.796875 447.152344 L 386.796875 455.617188 L 378.328125 455.617188 Z M 378.328125 447.152344 " clip-rule="nonzero"/></clipPath><clipPath id="f6d5bc1685"><path d="M 382.5625 447.152344 C 380.222656 447.152344 378.328125 449.046875 378.328125 451.386719 C 378.328125 453.722656 380.222656 455.617188 382.5625 455.617188 C 384.898438 455.617188 386.796875 453.722656 386.796875 451.386719 C 386.796875 449.046875 384.898438 447.152344 382.5625 447.152344 Z M 382.5625 447.152344 " clip-rule="nonzero"/></clipPath></defs><g clip-path="url(#fef0c54368)"><g clip-path="url(#95575c9106)"><path fill="#ffffff" d="M 20.917969 212.957031 L 789.082031 212.957031 L 789.082031 597.042969 L 20.917969 597.042969 Z M 20.917969 212.957031 " fill-opacity="1" fill-rule="nonzero"/></g></g><g clip-path="url(#7fb601ca7f)"><g clip-path="url(#f976dcdd49)"><path stroke-linecap="butt" transform="matrix(0.75, 0, 0, 0.75, 20.91649, 212.95829)" fill="none" stroke-linejoin="miter" d="M 341.590531 29.576448 C 393.929075 11.717072 453.793661 -0.00167845 512.387414 -0.00167845 C 570.975959 -0.00167845 627.35617 10.045197 679.309298 27.899365 C 680.418673 28.461865 681.522839 28.461865 682.627006 29.019156 C 877.741599 100.446243 1021.455148 289.055628 1024.220773 492.852513 L 1024.220773 512.107722 L 0.00197182 512.107722 L 0.00197182 492.86293 C 2.762389 287.941044 144.262396 99.326452 341.590531 29.576448 Z M 341.590531 29.576448 " stroke="#ffffff" stroke-width="22" stroke-opacity="1" stroke-miterlimit="4"/></g></g><g clip-path="url(#af99224ffb)"><path fill="#ffffff" d="M 137.078125 428.210938 L 218.527344 428.210938 L 218.527344 593.019531 L 137.078125 593.019531 Z M 137.078125 428.210938 " fill-opacity="1" fill-rule="nonzero"/></g><g clip-path="url(#21eda4bd31)"><path fill="#ffffff" d="M 177.800781 381.089844 L 259.25 381.089844 L 259.25 592.988281 L 177.800781 592.988281 Z M 177.800781 381.089844 " fill-opacity="1" fill-rule="nonzero"/></g><g clip-path="url(#9f209c2ab1)"><path fill="#ffffff" d="M 345.230469 486.984375 L 478.011719 486.984375 L 478.011719 592.878906 L 345.230469 592.878906 Z M 345.230469 486.984375 " fill-opacity="1" fill-rule="nonzero"/></g><g clip-path="url(#5ea4e37fe2)"><path fill="#ffffff" d="M 502.085938 428.210938 L 583.535156 428.210938 L 583.535156 593.019531 L 502.085938 593.019531 Z M 502.085938 428.210938 " fill-opacity="1" fill-rule="nonzero"/></g><g clip-path="url(#428ad7eb7a)"><path fill="#ffffff" d="M 542.808594 381.089844 L 624.257812 381.089844 L 624.257812 592.988281 L 542.808594 592.988281 Z M 542.808594 381.089844 " fill-opacity="1" fill-rule="nonzero"/></g><g clip-path="url(#9b32be181b)"><path fill="#ffffff" d="M 591.472656 428.210938 L 672.921875 428.210938 L 672.921875 593.019531 L 591.472656 593.019531 Z M 591.472656 428.210938 " fill-opacity="1" fill-rule="nonzero"/></g><path stroke-linecap="butt" transform="matrix(0.000000001309, -0.75, 0.75, 0.000000001309, 282.910127, 592.871702)" fill="none" stroke-linejoin="miter" d="M 0.000811241 5.500039 L 246.313324 5.500039 " stroke="#ffffff" stroke-width="11" stroke-opacity="1" stroke-miterlimit="4"/><path stroke-linecap="butt" transform="matrix(0, -0.75, 0.75, 0, 378.431087, 592.871702)" fill="none" stroke-linejoin="miter" d="M 0.000811231 5.498134 L 188.657071 5.498134 " stroke="#ffffff" stroke-width="11" stroke-opacity="1" stroke-miterlimit="4"/><path stroke-linecap="butt" transform="matrix(-0.683249, -0.309306, 0.309306, -0.683249, 380.855464, 455.142429)" fill="none" stroke-linejoin="miter" d="M -0.00140729 5.50319 L 139.805539 5.501855 " stroke="#ffffff" stroke-width="11" stroke-opacity="1" stroke-miterlimit="4"/><g clip-path="url(#118bb9deb7)"><g clip-path="url(#704213c506)"><path fill="#ffffff" d="M 283.03125 404.136719 L 291.5 404.136719 L 291.5 412.601562 L 283.03125 412.601562 Z M 283.03125 404.136719 " fill-opacity="1" fill-rule="nonzero"/></g></g><g clip-path="url(#de20673d6e)"><g clip-path="url(#f6d5bc1685)"><path fill="#ffffff" d="M 378.328125 447.152344 L 386.796875 447.152344 L 386.796875 455.617188 L 378.328125 455.617188 Z M 378.328125 447.152344 " fill-opacity="1" fill-rule="nonzero"/></g></g></svg>