<svg xmlns="http://www.w3.org/2000/svg" xmlns:xlink="http://www.w3.org/1999/xlink" width="1080" zoomAndPan="magnify" viewBox="0 0 810 809.999993" height="1080" preserveAspectRatio="xMidYMid meet" version="1.0"><defs><clipPath id="e8b3d02def"><path d="M 326.628906 175.953125 L 483.367188 175.953125 L 483.367188 332.691406 L 326.628906 332.691406 Z M 326.628906 175.953125 " clip-rule="nonzero"/></clipPath><clipPath id="41a562a576"><path d="M 405 175.953125 C 361.71875 175.953125 326.628906 211.039062 326.628906 254.320312 C 326.628906 297.601562 361.71875 332.691406 405 332.691406 C 448.28125 332.691406 483.367188 297.601562 483.367188 254.320312 C 483.367188 211.039062 448.28125 175.953125 405 175.953125 Z M 405 175.953125 " clip-rule="nonzero"/></clipPath><clipPath id="d591bdb448"><path d="M 346.171875 476.25 L 352.164062 476.25 L 352.164062 482.242188 L 346.171875 482.242188 Z M 346.171875 476.25 " clip-rule="nonzero"/></clipPath><clipPath id="1fe96de888"><path d="M 349.167969 476.25 C 347.511719 476.25 346.171875 477.589844 346.171875 479.246094 C 346.171875 480.898438 347.511719 482.242188 349.167969 482.242188 C 350.820312 482.242188 352.164062 480.898438 352.164062 479.246094 C 352.164062 477.589844 350.820312 476.25 349.167969 476.25 Z M 349.167969 476.25 " clip-rule="nonzero"/></clipPath><clipPath id="a4f62537c6"><path d="M 418.386719 508.925781 L 424.375 508.925781 L 424.375 514.917969 L 418.386719 514.917969 Z M 418.386719 508.925781 " clip-rule="nonzero"/></clipPath><clipPath id="911c472306"><path d="M 421.382812 508.925781 C 419.726562 508.925781 418.386719 510.265625 418.386719 511.921875 C 418.386719 513.578125 419.726562 514.917969 421.382812 514.917969 C 423.035156 514.917969 424.375 513.578125 424.375 511.921875 C 424.375 510.265625 423.035156 508.925781 421.382812 508.925781 Z M 421.382812 508.925781 " clip-rule="nonzero"/></clipPath><clipPath id="5ba963cf92"><path d="M 418.355469 535.828125 L 424.347656 535.828125 L 424.347656 541.820312 L 418.355469 541.820312 Z M 418.355469 535.828125 " clip-rule="nonzero"/></clipPath><clipPath id="033296cf66"><path d="M 421.351562 535.828125 C 419.695312 535.828125 418.355469 537.167969 418.355469 538.824219 C 418.355469 540.476562 419.695312 541.820312 421.351562 541.820312 C 423.003906 541.820312 424.347656 540.476562 424.347656 538.824219 C 424.347656 537.167969 423.003906 535.828125 421.351562 535.828125 Z M 421.351562 535.828125 " clip-rule="nonzero"/></clipPath><clipPath id="fab11f82c8"><path d="M 481.597656 535.828125 L 487.589844 535.828125 L 487.589844 541.820312 L 481.597656 541.820312 Z M 481.597656 535.828125 " clip-rule="nonzero"/></clipPath><clipPath id="1fb46076bd"><path d="M 484.59375 535.828125 C 482.941406 535.828125 481.597656 537.167969 481.597656 538.824219 C 481.597656 540.476562 482.941406 541.820312 484.59375 541.820312 C 486.25 541.820312 487.589844 540.476562 487.589844 538.824219 C 487.589844 537.167969 486.25 535.828125 484.59375 535.828125 Z M 484.59375 535.828125 " clip-rule="nonzero"/></clipPath><clipPath id="ddf0c03703"><path d="M 496.597656 489.917969 L 502.589844 489.917969 L 502.589844 495.90625 L 496.597656 495.90625 Z M 496.597656 489.917969 " clip-rule="nonzero"/></clipPath><clipPath id="7c18388f84"><path d="M 499.59375 489.917969 C 497.941406 489.917969 496.597656 491.257812 496.597656 492.914062 C 496.597656 494.566406 497.941406 495.90625 499.59375 495.90625 C 501.25 495.90625 502.589844 494.566406 502.589844 492.914062 C 502.589844 491.257812 501.25 489.917969 499.59375 489.917969 Z M 499.59375 489.917969 " clip-rule="nonzero"/></clipPath><clipPath id="2fdedeaa8f"><path d="M 527.375 489.917969 L 533.367188 489.917969 L 533.367188 495.90625 L 527.375 495.90625 Z M 527.375 489.917969 " clip-rule="nonzero"/></clipPath><clipPath id="04be6bfdbe"><path d="M 530.371094 489.917969 C 528.714844 489.917969 527.375 491.257812 527.375 492.914062 C 527.375 494.566406 528.714844 495.90625 530.371094 495.90625 C 532.023438 495.90625 533.367188 494.566406 533.367188 492.914062 C 533.367188 491.257812 532.023438 489.917969 530.371094 489.917969 Z M 530.371094 489.917969 " clip-rule="nonzero"/></clipPath><clipPath id="f521f62226"><path d="M 527.375 454.3125 L 533.367188 454.3125 L 533.367188 460.300781 L 527.375 460.300781 Z M 527.375 454.3125 " clip-rule="nonzero"/></clipPath><clipPath id="451d61ed75"><path d="M 530.371094 454.3125 C 528.714844 454.3125 527.375 455.652344 527.375 457.304688 C 527.375 458.960938 528.714844 460.300781 530.371094 460.300781 C 532.023438 460.300781 533.367188 458.960938 533.367188 457.304688 C 533.367188 455.652344 532.023438 454.3125 530.371094 454.3125 Z M 530.371094 454.3125 " clip-rule="nonzero"/></clipPath><clipPath id="7e3f111ccf"><path d="M 588.921875 454.3125 L 594.914062 454.3125 L 594.914062 460.300781 L 588.921875 460.300781 Z M 588.921875 454.3125 " clip-rule="nonzero"/></clipPath><clipPath id="daeedd7f2d"><path d="M 591.917969 454.3125 C 590.265625 454.3125 588.921875 455.652344 588.921875 457.304688 C 588.921875 458.960938 590.265625 460.300781 591.917969 460.300781 C 593.574219 460.300781 594.914062 458.960938 594.914062 457.304688 C 594.914062 455.652344 593.574219 454.3125 591.917969 454.3125 Z M 591.917969 454.3125 " clip-rule="nonzero"/></clipPath><clipPath id="e4abb0c141"><path d="M 588.921875 489.242188 L 594.914062 489.242188 L 594.914062 495.234375 L 588.921875 495.234375 Z M 588.921875 489.242188 " clip-rule="nonzero"/></clipPath><clipPath id="7c72d1d0c1"><path d="M 591.917969 489.242188 C 590.265625 489.242188 588.921875 490.582031 588.921875 492.238281 C 588.921875 493.890625 590.265625 495.234375 591.917969 495.234375 C 593.574219 495.234375 594.914062 493.890625 594.914062 492.238281 C 594.914062 490.582031 593.574219 489.242188 591.917969 489.242188 Z M 591.917969 489.242188 " clip-rule="nonzero"/></clipPath><clipPath id="41b93f763d"><path d="M 693.246094 489.917969 L 699.238281 489.917969 L 699.238281 495.90625 L 693.246094 495.90625 Z M 693.246094 489.917969 " clip-rule="nonzero"/></clipPath><clipPath id="71feb64a00"><path d="M 696.242188 489.917969 C 694.589844 489.917969 693.246094 491.257812 693.246094 492.914062 C 693.246094 494.566406 694.589844 495.90625 696.242188 495.90625 C 697.898438 495.90625 699.238281 494.566406 699.238281 492.914062 C 699.238281 491.257812 697.898438 489.917969 696.242188 489.917969 Z M 696.242188 489.917969 " clip-rule="nonzero"/></clipPath><clipPath id="5a089874a2"><path d="M 331.171875 453.484375 L 337.164062 453.484375 L 337.164062 459.476562 L 331.171875 459.476562 Z M 331.171875 453.484375 " clip-rule="nonzero"/></clipPath><clipPath id="b9db7ea127"><path d="M 334.167969 453.484375 C 332.511719 453.484375 331.171875 454.828125 331.171875 456.480469 C 331.171875 458.136719 332.511719 459.476562 334.167969 459.476562 C 335.820312 459.476562 337.164062 458.136719 337.164062 456.480469 C 337.164062 454.828125 335.820312 453.484375 334.167969 453.484375 Z M 334.167969 453.484375 " clip-rule="nonzero"/></clipPath><clipPath id="9875570ae1"><path d="M 269.621094 453.484375 L 275.613281 453.484375 L 275.613281 459.476562 L 269.621094 459.476562 Z M 269.621094 453.484375 " clip-rule="nonzero"/></clipPath><clipPath id="587454f49c"><path d="M 272.617188 453.484375 C 270.964844 453.484375 269.621094 454.828125 269.621094 456.480469 C 269.621094 458.136719 270.964844 459.476562 272.617188 459.476562 C 274.273438 459.476562 275.613281 458.136719 275.613281 456.480469 C 275.613281 454.828125 274.273438 453.484375 272.617188 453.484375 Z M 272.617188 453.484375 " clip-rule="nonzero"/></clipPath><clipPath id="ed17b4fb47"><path d="M 269.621094 488.417969 L 275.613281 488.417969 L 275.613281 494.40625 L 269.621094 494.40625 Z M 269.621094 488.417969 " clip-rule="nonzero"/></clipPath><clipPath id="bbae9ce73a"><path d="M 272.617188 488.417969 C 270.964844 488.417969 269.621094 489.757812 269.621094 491.414062 C 269.621094 493.066406 270.964844 494.40625 272.617188 494.40625 C 274.273438 494.40625 275.613281 493.066406 275.613281 491.414062 C 275.613281 489.757812 274.273438 488.417969 272.617188 488.417969 Z M 272.617188 488.417969 " clip-rule="nonzero"/></clipPath><clipPath id="6e5c1c61b9"><path d="M 238.847656 488.417969 L 244.839844 488.417969 L 244.839844 494.40625 L 238.847656 494.40625 Z M 238.847656 488.417969 " clip-rule="nonzero"/></clipPath><clipPath id="d0bd13c07a"><path d="M 241.84375 488.417969 C 240.1875 488.417969 238.847656 489.757812 238.847656 491.414062 C 238.847656 493.066406 240.1875 494.40625 241.84375 494.40625 C 243.496094 494.40625 244.839844 493.066406 244.839844 491.414062 C 244.839844 489.757812 243.496094 488.417969 241.84375 488.417969 Z M 241.84375 488.417969 " clip-rule="nonzero"/></clipPath><clipPath id="fa1b84d0ed"><path d="M 238.847656 505.929688 L 244.839844 505.929688 L 244.839844 511.921875 L 238.847656 511.921875 Z M 238.847656 505.929688 " clip-rule="nonzero"/></clipPath><clipPath id="454461e863"><path d="M 241.84375 505.929688 C 240.1875 505.929688 238.847656 507.269531 238.847656 508.925781 C 238.847656 510.582031 240.1875 511.921875 241.84375 511.921875 C 243.496094 511.921875 244.839844 510.582031 244.839844 508.925781 C 244.839844 507.269531 243.496094 505.929688 241.84375 505.929688 Z M 241.84375 505.929688 " clip-rule="nonzero"/></clipPath><clipPath id="a767ad842e"><path d="M 171.992188 505.929688 L 177.984375 505.929688 L 177.984375 511.921875 L 171.992188 511.921875 Z M 171.992188 505.929688 " clip-rule="nonzero"/></clipPath><clipPath id="b5727ab06b"><path d="M 174.988281 505.929688 C 173.335938 505.929688 171.992188 507.269531 171.992188 508.925781 C 171.992188 510.582031 173.335938 511.921875 174.988281 511.921875 C 176.644531 511.921875 177.984375 510.582031 177.984375 508.925781 C 177.984375 507.269531 176.644531 505.929688 174.988281 505.929688 Z M 174.988281 505.929688 " clip-rule="nonzero"/></clipPath><clipPath id="8d92db9b8c"><path d="M 171.992188 445.664062 L 177.984375 445.664062 L 177.984375 451.65625 L 171.992188 451.65625 Z M 171.992188 445.664062 " clip-rule="nonzero"/></clipPath><clipPath id="d3445c076b"><path d="M 174.988281 445.664062 C 173.335938 445.664062 171.992188 447.003906 171.992188 448.660156 C 171.992188 450.3125 173.335938 451.65625 174.988281 451.65625 C 176.644531 451.65625 177.984375 450.3125 177.984375 448.660156 C 177.984375 447.003906 176.644531 445.664062 174.988281 445.664062 Z M 174.988281 445.664062 " clip-rule="nonzero"/></clipPath><clipPath id="e206effb72"><path d="M 141.378906 399.007812 L 147.367188 399.007812 L 147.367188 405 L 141.378906 405 Z M 141.378906 399.007812 " clip-rule="nonzero"/></clipPath><clipPath id="b5fb2fdbed"><path d="M 144.371094 399.007812 C 142.71875 399.007812 141.378906 400.347656 141.378906 402.003906 C 141.378906 403.660156 142.71875 405 144.371094 405 C 146.027344 405 147.367188 403.660156 147.367188 402.003906 C 147.367188 400.347656 146.027344 399.007812 144.371094 399.007812 Z M 144.371094 399.007812 " clip-rule="nonzero"/></clipPath><clipPath id="bb3be51195"><path d="M 110.761719 445.664062 L 116.753906 445.664062 L 116.753906 451.65625 L 110.761719 451.65625 Z M 110.761719 445.664062 " clip-rule="nonzero"/></clipPath><clipPath id="f850ef853a"><path d="M 113.757812 445.664062 C 112.101562 445.664062 110.761719 447.003906 110.761719 448.660156 C 110.761719 450.3125 112.101562 451.65625 113.757812 451.65625 C 115.410156 451.65625 116.753906 450.3125 116.753906 448.660156 C 116.753906 447.003906 115.410156 445.664062 113.757812 445.664062 Z M 113.757812 445.664062 " clip-rule="nonzero"/></clipPath></defs><path stroke-linecap="butt" transform="matrix(-0.75, 0, 0, -0.75, 728.999967, 621.843853)" fill="none" stroke-linejoin="miter" d="M -0.0000442333 4.000137 L 863.999999 4.000137 " stroke="#ffffff" stroke-width="8" stroke-opacity="1" stroke-miterlimit="4"/><g clip-path="url(#e8b3d02def)"><g clip-path="url(#41a562a576)"><path stroke-linecap="butt" transform="matrix(0.75, 0, 0, 0.75, 326.629881, 175.951622)" fill="none" stroke-linejoin="miter" d="M 104.493491 0.0020046 C 46.785158 0.0020046 -0.00129922 46.783254 -0.00129922 104.491587 C -0.00129922 162.199919 46.785158 208.986377 104.493491 208.986377 C 162.201824 208.986377 208.983073 162.199919 208.983073 104.491587 C 208.983073 46.783254 162.201824 0.0020046 104.493491 0.0020046 Z M 104.493491 0.0020046 " stroke="#ffffff" stroke-width="16" stroke-opacity="1" stroke-miterlimit="4"/></g></g><path stroke-linecap="butt" transform="matrix(0.000000001309, -0.75, 0.75, 0.000000001309, 346.164567, 618.841213)" fill="none" stroke-linejoin="miter" d="M 0.0018255 3.999328 L 186.132043 3.999327 " stroke="#ffffff" stroke-width="8" stroke-opacity="1" stroke-miterlimit="4"/><path stroke-linecap="butt" transform="matrix(0, -0.75, 0.75, 0, 418.346814, 538.819793)" fill="none" stroke-linejoin="miter" d="M -0.00069281 4.001123 L 35.869101 4.001123 " stroke="#ffffff" stroke-width="8" stroke-opacity="1" stroke-miterlimit="4"/><path stroke-linecap="butt" transform="matrix(-0.683249, -0.309306, 0.309306, -0.683249, 420.108702, 514.653978)" fill="none" stroke-linejoin="miter" d="M -0.00259423 3.999865 L 105.646164 4.002665 " stroke="#ffffff" stroke-width="8" stroke-opacity="1" stroke-miterlimit="4"/><g clip-path="url(#d591bdb448)"><g clip-path="url(#1fe96de888)"><path fill="#ffffff" d="M 346.171875 476.25 L 352.164062 476.25 L 352.164062 482.242188 L 346.171875 482.242188 Z M 346.171875 476.25 " fill-opacity="1" fill-rule="nonzero"/></g></g><g clip-path="url(#a4f62537c6)"><g clip-path="url(#911c472306)"><path fill="#ffffff" d="M 418.386719 508.925781 L 424.375 508.925781 L 424.375 514.917969 L 418.386719 514.917969 Z M 418.386719 508.925781 " fill-opacity="1" fill-rule="nonzero"/></g></g><path stroke-linecap="butt" transform="matrix(-0.75, 0, 0, -0.75, 484.584483, 541.823081)" fill="none" stroke-linejoin="miter" d="M -0.00193917 3.998483 L 84.32619 3.998483 " stroke="#ffffff" stroke-width="8" stroke-opacity="1" stroke-miterlimit="4"/><path stroke-linecap="butt" transform="matrix(0.000000001309, -0.75, 0.75, 0.000000001309, 481.592187, 618.841333)" fill="none" stroke-linejoin="miter" d="M 0.0019855 4.002084 L 106.694699 4.002084 " stroke="#ffffff" stroke-width="8" stroke-opacity="1" stroke-miterlimit="4"/><g clip-path="url(#5ba963cf92)"><g clip-path="url(#033296cf66)"><path fill="#ffffff" d="M 418.355469 535.828125 L 424.347656 535.828125 L 424.347656 541.820312 L 418.355469 541.820312 Z M 418.355469 535.828125 " fill-opacity="1" fill-rule="nonzero"/></g></g><g clip-path="url(#fab11f82c8)"><g clip-path="url(#1fb46076bd)"><path fill="#ffffff" d="M 481.597656 535.828125 L 487.589844 535.828125 L 487.589844 541.820312 L 481.597656 541.820312 Z M 481.597656 535.828125 " fill-opacity="1" fill-rule="nonzero"/></g></g><path stroke-linecap="butt" transform="matrix(0, -0.75, 0.75, 0, 496.591731, 617.344981)" fill="none" stroke-linejoin="miter" d="M 0.00164126 3.997485 L 165.913108 3.997485 " stroke="#ffffff" stroke-width="8" stroke-opacity="1" stroke-miterlimit="4"/><path stroke-linecap="butt" transform="matrix(-0.75, -0.000000001309, 0.000000001309, -0.75, 530.368153, 495.912235)" fill="none" stroke-linejoin="miter" d="M 0.0012871 3.997564 L 41.032539 3.997564 " stroke="#ffffff" stroke-width="8" stroke-opacity="1" stroke-miterlimit="4"/><path stroke-linecap="butt" transform="matrix(0, 0.75, -0.75, 0, 533.367457, 457.308573)" fill="none" stroke-linejoin="miter" d="M 0.0000276754 4.000359 L 47.473988 4.000359 " stroke="#ffffff" stroke-width="8" stroke-opacity="1" stroke-miterlimit="4"/><path stroke-linecap="butt" transform="matrix(-0.75, 0, 0, -0.75, 591.916438, 460.306461)" fill="none" stroke-linejoin="miter" d="M -0.00204137 4.002365 L 82.065671 4.002365 " stroke="#ffffff" stroke-width="8" stroke-opacity="1" stroke-miterlimit="4"/><path stroke-linecap="butt" transform="matrix(0.000000001309, 0.75, -0.75, 0.000000001309, 594.917206, 457.308573)" fill="none" stroke-linejoin="miter" d="M 0.0000276685 3.998983 L 47.473988 3.998983 " stroke="#ffffff" stroke-width="8" stroke-opacity="1" stroke-miterlimit="4"/><path stroke-linecap="butt" transform="matrix(-0.749984, -0.00485215, 0.00485215, -0.749984, 696.217984, 495.912115)" fill="none" stroke-linejoin="miter" d="M -0.00120044 3.997495 L 139.100679 3.998612 " stroke="#ffffff" stroke-width="8" stroke-opacity="1" stroke-miterlimit="4"/><path stroke-linecap="butt" transform="matrix(0.000000001309, -0.75, 0.75, 0.000000001309, 693.240737, 617.344981)" fill="none" stroke-linejoin="miter" d="M 0.00164126 4.001935 L 165.913108 4.001934 " stroke="#ffffff" stroke-width="8" stroke-opacity="1" stroke-miterlimit="4"/><g clip-path="url(#ddf0c03703)"><g clip-path="url(#7c18388f84)"><path fill="#ffffff" d="M 496.597656 489.917969 L 502.589844 489.917969 L 502.589844 495.90625 L 496.597656 495.90625 Z M 496.597656 489.917969 " fill-opacity="1" fill-rule="nonzero"/></g></g><g clip-path="url(#2fdedeaa8f)"><g clip-path="url(#04be6bfdbe)"><path fill="#ffffff" d="M 527.375 489.917969 L 533.367188 489.917969 L 533.367188 495.90625 L 527.375 495.90625 Z M 527.375 489.917969 " fill-opacity="1" fill-rule="nonzero"/></g></g><g clip-path="url(#f521f62226)"><g clip-path="url(#451d61ed75)"><path fill="#ffffff" d="M 527.375 454.3125 L 533.367188 454.3125 L 533.367188 460.300781 L 527.375 460.300781 Z M 527.375 454.3125 " fill-opacity="1" fill-rule="nonzero"/></g></g><g clip-path="url(#7e3f111ccf)"><g clip-path="url(#daeedd7f2d)"><path fill="#ffffff" d="M 588.921875 454.3125 L 594.914062 454.3125 L 594.914062 460.300781 L 588.921875 460.300781 Z M 588.921875 454.3125 " fill-opacity="1" fill-rule="nonzero"/></g></g><g clip-path="url(#e4abb0c141)"><g clip-path="url(#7c72d1d0c1)"><path fill="#ffffff" d="M 588.921875 489.242188 L 594.914062 489.242188 L 594.914062 495.234375 L 588.921875 495.234375 Z M 588.921875 489.242188 " fill-opacity="1" fill-rule="nonzero"/></g></g><g clip-path="url(#41b93f763d)"><g clip-path="url(#71feb64a00)"><path fill="#ffffff" d="M 693.246094 489.917969 L 699.238281 489.917969 L 699.238281 495.90625 L 693.246094 495.90625 Z M 693.246094 489.917969 " fill-opacity="1" fill-rule="nonzero"/></g></g><path stroke-linecap="butt" transform="matrix(0, -0.75, 0.75, 0, 110.753333, 618.841045)" fill="none" stroke-linejoin="miter" d="M 0.00160149 4.000764 L 226.913071 4.000764 " stroke="#ffffff" stroke-width="8" stroke-opacity="1" stroke-miterlimit="4"/><path stroke-linecap="butt" transform="matrix(0.411491, -0.627037, 0.627037, 0.411491, 111.245645, 447.008206)" fill="none" stroke-linejoin="miter" d="M 0.00212064 3.998792 L 74.404673 4.00068 " stroke="#ffffff" stroke-width="8" stroke-opacity="1" stroke-miterlimit="4"/><path stroke-linecap="butt" transform="matrix(-0.411491, -0.627037, 0.627037, -0.411491, 172.473583, 450.300117)" fill="none" stroke-linejoin="miter" d="M 0.00293784 3.999918 L 74.40549 3.998029 " stroke="#ffffff" stroke-width="8" stroke-opacity="1" stroke-miterlimit="4"/><path stroke-linecap="butt" transform="matrix(0, -0.75, 0.75, 0, 171.984969, 508.921218)" fill="none" stroke-linejoin="miter" d="M -0.000875471 3.999208 L 80.358504 3.999208 " stroke="#ffffff" stroke-width="8" stroke-opacity="1" stroke-miterlimit="4"/><path stroke-linecap="butt" transform="matrix(0.75, 0, 0, 0.75, 174.989834, 505.926091)" fill="none" stroke-linejoin="miter" d="M -0.0020702 3.999588 L 89.138559 3.999588 " stroke="#ffffff" stroke-width="8" stroke-opacity="1" stroke-miterlimit="4"/><path stroke-linecap="butt" transform="matrix(0, -0.75, 0.75, 0, 238.839659, 508.923042)" fill="none" stroke-linejoin="miter" d="M 0.00155653 4.000247 L 23.350516 4.000247 " stroke="#ffffff" stroke-width="8" stroke-opacity="1" stroke-miterlimit="4"/><path stroke-linecap="butt" transform="matrix(-0.75, -0.000000001309, 0.000000001309, -0.75, 272.616112, 494.412235)" fill="none" stroke-linejoin="miter" d="M -0.00143375 3.997564 L 41.035027 3.997564 " stroke="#ffffff" stroke-width="8" stroke-opacity="1" stroke-miterlimit="4"/><path stroke-linecap="butt" transform="matrix(0.000000001309, -0.75, 0.75, 0.000000001309, 269.615409, 491.410123)" fill="none" stroke-linejoin="miter" d="M -0.0000439559 4.002371 L 47.473917 4.002371 " stroke="#ffffff" stroke-width="8" stroke-opacity="1" stroke-miterlimit="4"/><path stroke-linecap="butt" transform="matrix(-0.75, 0, 0, -0.75, 334.16439, 459.481437)" fill="none" stroke-linejoin="miter" d="M 0.000436518 4.001291 L 82.068149 4.001291 " stroke="#ffffff" stroke-width="8" stroke-opacity="1" stroke-miterlimit="4"/><path stroke-linecap="butt" transform="matrix(0, 0.75, -0.75, 0, 337.162047, 455.811621)" fill="none" stroke-linejoin="miter" d="M 0.00117191 4.002522 L 213.386599 4.002522 " stroke="#ffffff" stroke-width="8" stroke-opacity="1" stroke-miterlimit="4"/><g clip-path="url(#5a089874a2)"><g clip-path="url(#b9db7ea127)"><path fill="#ffffff" d="M 331.171875 453.484375 L 337.164062 453.484375 L 337.164062 459.476562 L 331.171875 459.476562 Z M 331.171875 453.484375 " fill-opacity="1" fill-rule="nonzero"/></g></g><g clip-path="url(#9875570ae1)"><g clip-path="url(#587454f49c)"><path fill="#ffffff" d="M 269.621094 453.484375 L 275.613281 453.484375 L 275.613281 459.476562 L 269.621094 459.476562 Z M 269.621094 453.484375 " fill-opacity="1" fill-rule="nonzero"/></g></g><g clip-path="url(#ed17b4fb47)"><g clip-path="url(#bbae9ce73a)"><path fill="#ffffff" d="M 269.621094 488.417969 L 275.613281 488.417969 L 275.613281 494.40625 L 269.621094 494.40625 Z M 269.621094 488.417969 " fill-opacity="1" fill-rule="nonzero"/></g></g><g clip-path="url(#6e5c1c61b9)"><g clip-path="url(#d0bd13c07a)"><path fill="#ffffff" d="M 238.847656 488.417969 L 244.839844 488.417969 L 244.839844 494.40625 L 238.847656 494.40625 Z M 238.847656 488.417969 " fill-opacity="1" fill-rule="nonzero"/></g></g><g clip-path="url(#fa1b84d0ed)"><g clip-path="url(#454461e863)"><path fill="#ffffff" d="M 238.847656 505.929688 L 244.839844 505.929688 L 244.839844 511.921875 L 238.847656 511.921875 Z M 238.847656 505.929688 " fill-opacity="1" fill-rule="nonzero"/></g></g><g clip-path="url(#a767ad842e)"><g clip-path="url(#b5727ab06b)"><path fill="#ffffff" d="M 171.992188 505.929688 L 177.984375 505.929688 L 177.984375 511.921875 L 171.992188 511.921875 Z M 171.992188 505.929688 " fill-opacity="1" fill-rule="nonzero"/></g></g><g clip-path="url(#8d92db9b8c)"><g clip-path="url(#d3445c076b)"><path fill="#ffffff" d="M 171.992188 445.664062 L 177.984375 445.664062 L 177.984375 451.65625 L 171.992188 451.65625 Z M 171.992188 445.664062 " fill-opacity="1" fill-rule="nonzero"/></g></g><g clip-path="url(#e206effb72)"><g clip-path="url(#b5fb2fdbed)"><path fill="#ffffff" d="M 141.378906 399.007812 L 147.367188 399.007812 L 147.367188 405 L 141.378906 405 Z M 141.378906 399.007812 " fill-opacity="1" fill-rule="nonzero"/></g></g><g clip-path="url(#bb3be51195)"><g clip-path="url(#f850ef853a)"><path fill="#ffffff" d="M 110.761719 445.664062 L 116.753906 445.664062 L 116.753906 451.65625 L 110.761719 451.65625 Z M 110.761719 445.664062 " fill-opacity="1" fill-rule="nonzero"/></g></g></svg>