<svg xmlns="http://www.w3.org/2000/svg" xmlns:xlink="http://www.w3.org/1999/xlink" width="1080" zoomAndPan="magnify" viewBox="0 0 810 809.999993" height="1080" preserveAspectRatio="xMidYMid meet" version="1.0"><defs><clipPath id="c72fad0ef3"><path d="M 147.121094 489.734375 L 219.269531 489.734375 L 219.269531 615.070312 L 147.121094 615.070312 Z M 147.121094 489.734375 " clip-rule="nonzero"/></clipPath><clipPath id="385be39ae3"><path d="M 76 364.121094 L 147.777344 364.121094 L 147.777344 615.066406 L 76 615.066406 Z M 76 364.121094 " clip-rule="nonzero"/></clipPath><clipPath id="568c9c0038"><path d="M 76 417.691406 L 76 615.066406 L 147.777344 615.066406 L 147.777344 417.691406 L 111.890625 364.398438 Z M 76 417.691406 " clip-rule="nonzero"/></clipPath><clipPath id="1844b59566"><path d="M 226.144531 469.203125 L 298.292969 469.203125 L 298.292969 615.070312 L 226.144531 615.070312 Z M 226.144531 469.203125 " clip-rule="nonzero"/></clipPath><clipPath id="4019182dd7"><path d="M 262.21875 427.46875 L 334.367188 427.46875 L 334.367188 615.070312 L 262.21875 615.070312 Z M 262.21875 427.46875 " clip-rule="nonzero"/></clipPath><clipPath id="949a6903e3"><path d="M 396.566406 521.269531 L 503.769531 521.269531 L 503.769531 615.070312 L 396.566406 615.070312 Z M 396.566406 521.269531 " clip-rule="nonzero"/></clipPath><clipPath id="5b68bf516a"><path d="M 510.800781 469.203125 L 582.949219 469.203125 L 582.949219 615.070312 L 510.800781 615.070312 Z M 510.800781 469.203125 " clip-rule="nonzero"/></clipPath><clipPath id="60cb2e2023"><path d="M 546.875 427.46875 L 619.023438 427.46875 L 619.023438 615.070312 L 546.875 615.070312 Z M 546.875 427.46875 " clip-rule="nonzero"/></clipPath><clipPath id="fb251cf792"><path d="M 582.949219 469.203125 L 655.097656 469.203125 L 655.097656 615.070312 L 582.949219 615.070312 Z M 582.949219 469.203125 " clip-rule="nonzero"/></clipPath><clipPath id="adf6dca828"><path d="M 661.847656 469.203125 L 733.996094 469.203125 L 733.996094 615.070312 L 661.847656 615.070312 Z M 661.847656 469.203125 " clip-rule="nonzero"/></clipPath><clipPath id="2a33098678"><path d="M 341.296875 447.707031 L 348.746094 447.707031 L 348.746094 455.15625 L 341.296875 455.15625 Z M 341.296875 447.707031 " clip-rule="nonzero"/></clipPath><clipPath id="702a98e773"><path d="M 345.019531 447.707031 C 342.964844 447.707031 341.296875 449.375 341.296875 451.429688 C 341.296875 453.488281 342.964844 455.15625 345.019531 455.15625 C 347.078125 455.15625 348.746094 453.488281 348.746094 451.429688 C 348.746094 449.375 347.078125 447.707031 345.019531 447.707031 Z M 345.019531 447.707031 " clip-rule="nonzero"/></clipPath><clipPath id="8ed0c47f75"><path d="M 425.90625 486.007812 L 433.359375 486.007812 L 433.359375 493.460938 L 425.90625 493.460938 Z M 425.90625 486.007812 " clip-rule="nonzero"/></clipPath><clipPath id="e1f0ceee73"><path d="M 429.632812 486.007812 C 427.574219 486.007812 425.90625 487.675781 425.90625 489.734375 C 425.90625 491.792969 427.574219 493.460938 429.632812 493.460938 C 431.691406 493.460938 433.359375 491.792969 433.359375 489.734375 C 433.359375 487.675781 431.691406 486.007812 429.632812 486.007812 Z M 429.632812 486.007812 " clip-rule="nonzero"/></clipPath><clipPath id="bf3a897aa8"><path d="M 318 194 L 494 194 L 494 370.878906 L 318 370.878906 Z M 318 194 " clip-rule="nonzero"/></clipPath></defs><path stroke-linecap="butt" transform="matrix(-0.75, 0, 0, -0.75, 784.792404, 619.943893)" fill="none" stroke-linejoin="miter" d="M -0.000752976 6.498107 L 1012.780548 6.498107 " stroke="#ffffff" stroke-width="13" stroke-opacity="1" stroke-miterlimit="4"/><g clip-path="url(#c72fad0ef3)"><path fill="#ffffff" d="M 147.121094 489.734375 L 219.269531 489.734375 L 219.269531 615.148438 L 147.121094 615.148438 Z M 147.121094 489.734375 " fill-opacity="1" fill-rule="nonzero"/></g><g clip-path="url(#385be39ae3)"><g clip-path="url(#568c9c0038)"><path fill="#ffffff" d="M 76 615.066406 L 76 364.402344 L 147.777344 364.402344 L 147.777344 615.066406 Z M 76 615.066406 " fill-opacity="1" fill-rule="nonzero"/></g></g><g clip-path="url(#1844b59566)"><path fill="#ffffff" d="M 226.144531 469.203125 L 298.292969 469.203125 L 298.292969 615.191406 L 226.144531 615.191406 Z M 226.144531 469.203125 " fill-opacity="1" fill-rule="nonzero"/></g><g clip-path="url(#4019182dd7)"><path fill="#ffffff" d="M 262.21875 427.46875 L 334.367188 427.46875 L 334.367188 615.167969 L 262.21875 615.167969 Z M 262.21875 427.46875 " fill-opacity="1" fill-rule="nonzero"/></g><path stroke-linecap="butt" transform="matrix(0.000000001309, -0.75, 0.75, 0.000000001309, 341.265572, 615.064213)" fill="none" stroke-linejoin="miter" d="M 0.00228408 5.000071 L 218.184587 5.000071 " stroke="#ffffff" stroke-width="10" stroke-opacity="1" stroke-miterlimit="4"/><path stroke-linecap="butt" transform="matrix(0, -0.75, 0.75, 0, 425.882238, 615.067717)" fill="none" stroke-linejoin="miter" d="M 0.00174774 5.000766 L 167.111131 5.000766 " stroke="#ffffff" stroke-width="10" stroke-opacity="1" stroke-miterlimit="4"/><path stroke-linecap="butt" transform="matrix(-0.683249, -0.309306, 0.309306, -0.683249, 428.078862, 493.149379)" fill="none" stroke-linejoin="miter" d="M -0.00020871 4.998275 L 123.839525 4.998771 " stroke="#ffffff" stroke-width="10" stroke-opacity="1" stroke-miterlimit="4"/><g clip-path="url(#949a6903e3)"><path fill="#ffffff" d="M 396.566406 521.269531 L 503.921875 521.269531 L 503.921875 615.070312 L 396.566406 615.070312 Z M 396.566406 521.269531 " fill-opacity="1" fill-rule="nonzero"/></g><g clip-path="url(#5b68bf516a)"><path fill="#ffffff" d="M 510.800781 469.203125 L 582.949219 469.203125 L 582.949219 615.191406 L 510.800781 615.191406 Z M 510.800781 469.203125 " fill-opacity="1" fill-rule="nonzero"/></g><g clip-path="url(#60cb2e2023)"><path fill="#ffffff" d="M 546.875 427.46875 L 619.023438 427.46875 L 619.023438 615.167969 L 546.875 615.167969 Z M 546.875 427.46875 " fill-opacity="1" fill-rule="nonzero"/></g><g clip-path="url(#fb251cf792)"><path fill="#ffffff" d="M 582.949219 469.203125 L 655.097656 469.203125 L 655.097656 615.191406 L 582.949219 615.191406 Z M 582.949219 469.203125 " fill-opacity="1" fill-rule="nonzero"/></g><g clip-path="url(#adf6dca828)"><path fill="#ffffff" d="M 661.847656 469.203125 L 733.996094 469.203125 L 733.996094 615.191406 L 661.847656 615.191406 Z M 661.847656 469.203125 " fill-opacity="1" fill-rule="nonzero"/></g><g clip-path="url(#2a33098678)"><g clip-path="url(#702a98e773)"><path fill="#ffffff" d="M 341.296875 447.707031 L 348.746094 447.707031 L 348.746094 455.15625 L 341.296875 455.15625 Z M 341.296875 447.707031 " fill-opacity="1" fill-rule="nonzero"/></g></g><g clip-path="url(#8ed0c47f75)"><g clip-path="url(#e1f0ceee73)"><path fill="#ffffff" d="M 425.90625 486.007812 L 433.359375 486.007812 L 433.359375 493.460938 L 425.90625 493.460938 Z M 425.90625 486.007812 " fill-opacity="1" fill-rule="nonzero"/></g></g><g clip-path="url(#bf3a897aa8)"><path fill="#ffffff" d="M 492.671875 303.027344 C 491.738281 302.542969 490.59375 302.714844 489.832031 303.445312 C 473.480469 319.484375 444.519531 321.90625 422.871094 318.824219 C 410.46875 317.058594 397.859375 308.882812 389.992188 297.484375 C 383.308594 287.820312 376.550781 271.085938 382.128906 246.109375 C 387.359375 222.761719 401.808594 206.792969 423.941406 199.863281 C 425.015625 199.515625 425.746094 198.476562 425.640625 197.335938 C 425.535156 196.191406 424.671875 195.289062 423.527344 195.152344 C 401.910156 192.378906 382.441406 195.53125 365.605469 204.503906 C 351.679688 211.953125 339.761719 223.175781 330.234375 237.867188 C 322.441406 249.921875 318.214844 265.023438 318.042969 281.585938 C 317.867188 297.171875 321.402344 313.039062 328.019531 326.203125 C 341.183594 352.359375 367.648438 369.019531 398.828125 370.71875 C 400.90625 370.824219 402.914062 370.890625 404.890625 370.890625 C 433.609375 370.890625 453.734375 359.460938 465.792969 349.519531 C 480.480469 337.425781 491.21875 320.589844 493.886719 305.589844 C 494.128906 304.550781 493.609375 303.511719 492.671875 303.027344 Z M 462.742188 345.777344 C 450.515625 355.855469 429.519531 367.53125 399.105469 365.902344 C 369.660156 364.308594 344.714844 348.652344 332.347656 324.054688 C 318.941406 297.347656 319.738281 262.980469 334.324219 240.5 C 347.003906 220.960938 369.832031 199.066406 408.664062 199.066406 C 409.980469 199.066406 411.296875 199.101562 412.648438 199.136719 C 405.203125 202.703125 398.722656 207.484375 393.355469 213.40625 C 385.59375 221.929688 380.226562 232.566406 377.417969 245.070312 C 371.425781 271.746094 378.804688 289.792969 386.011719 300.257812 C 394.773438 312.933594 408.285156 321.664062 422.210938 323.640625 C 435.652344 325.546875 449.023438 325.269531 460.976562 322.773438 C 471.367188 320.625 480.167969 316.988281 487.269531 311.929688 C 483.667969 322.148438 475.941406 334.898438 462.742188 345.777344 Z M 462.742188 345.777344 " fill-opacity="1" fill-rule="nonzero"/></g></svg>