<svg xmlns="http://www.w3.org/2000/svg" xmlns:xlink="http://www.w3.org/1999/xlink" width="1080" zoomAndPan="magnify" viewBox="0 0 810 809.999993" height="1080" preserveAspectRatio="xMidYMid meet" version="1.0"><defs><clipPath id="c5929e8949"><path d="M 181.136719 511.921875 L 242.683594 511.921875 L 242.683594 618.84375 L 181.136719 618.84375 Z M 181.136719 511.921875 " clip-rule="nonzero"/></clipPath><clipPath id="9646ef63f9"><path d="M 121.214844 405 L 182.449219 405 L 182.449219 618.84375 L 121.214844 618.84375 Z M 121.214844 405 " clip-rule="nonzero"/></clipPath><clipPath id="63c3edbf9d"><path d="M 121.214844 450.464844 L 121.214844 618.84375 L 182.449219 618.84375 L 182.449219 450.464844 L 151.832031 405 Z M 121.214844 450.464844 " clip-rule="nonzero"/></clipPath><clipPath id="dde464b7d6"><path d="M 249.300781 494.410156 L 310.847656 494.410156 L 310.847656 618.84375 L 249.300781 618.84375 Z M 249.300781 494.410156 " clip-rule="nonzero"/></clipPath><clipPath id="7f6e1f2f11"><path d="M 280.074219 458.800781 L 341.625 458.800781 L 341.625 618.84375 L 280.074219 618.84375 Z M 280.074219 458.800781 " clip-rule="nonzero"/></clipPath><clipPath id="4f8316cb06"><path d="M 394.683594 538.824219 L 486.136719 538.824219 L 486.136719 618.84375 L 394.683594 618.84375 Z M 394.683594 538.824219 " clip-rule="nonzero"/></clipPath><clipPath id="1b5f9d556d"><path d="M 492.136719 494.410156 L 553.6875 494.410156 L 553.6875 618.84375 L 492.136719 618.84375 Z M 492.136719 494.410156 " clip-rule="nonzero"/></clipPath><clipPath id="95bdfc57fc"><path d="M 522.914062 458.800781 L 584.460938 458.800781 L 584.460938 618.84375 L 522.914062 618.84375 Z M 522.914062 458.800781 " clip-rule="nonzero"/></clipPath><clipPath id="0de3d5f82f"><path d="M 559.6875 494.410156 L 621.238281 494.410156 L 621.238281 618.84375 L 559.6875 618.84375 Z M 559.6875 494.410156 " clip-rule="nonzero"/></clipPath><clipPath id="c4943713d2"><path d="M 627.238281 494.410156 L 688.789062 494.410156 L 688.789062 618.84375 L 627.238281 618.84375 Z M 627.238281 494.410156 " clip-rule="nonzero"/></clipPath><clipPath id="7b406babca"><path d="M 326.628906 175.953125 L 483.371094 175.953125 L 483.371094 332.691406 L 326.628906 332.691406 Z M 326.628906 175.953125 " clip-rule="nonzero"/></clipPath><clipPath id="3f4fdcef66"><path d="M 405 175.953125 C 361.71875 175.953125 326.628906 211.039062 326.628906 254.320312 C 326.628906 297.605469 361.71875 332.691406 405 332.691406 C 448.28125 332.691406 483.371094 297.605469 483.371094 254.320312 C 483.371094 211.039062 448.28125 175.953125 405 175.953125 Z M 405 175.953125 " clip-rule="nonzero"/></clipPath><clipPath id="7f9d2d604a"><path d="M 326.628906 175.953125 L 483.367188 175.953125 L 483.367188 332.691406 L 326.628906 332.691406 Z M 326.628906 175.953125 " clip-rule="nonzero"/></clipPath><clipPath id="1d03930166"><path d="M 405 175.953125 C 361.71875 175.953125 326.628906 211.039062 326.628906 254.320312 C 326.628906 297.601562 361.71875 332.691406 405 332.691406 C 448.28125 332.691406 483.367188 297.601562 483.367188 254.320312 C 483.367188 211.039062 448.28125 175.953125 405 175.953125 Z M 405 175.953125 " clip-rule="nonzero"/></clipPath><clipPath id="257a6c6482"><path d="M 347.714844 476.25 L 353.707031 476.25 L 353.707031 482.242188 L 347.714844 482.242188 Z M 347.714844 476.25 " clip-rule="nonzero"/></clipPath><clipPath id="e5f3578b88"><path d="M 350.710938 476.25 C 349.054688 476.25 347.714844 477.589844 347.714844 479.246094 C 347.714844 480.898438 349.054688 482.242188 350.710938 482.242188 C 352.367188 482.242188 353.707031 480.898438 353.707031 479.246094 C 353.707031 477.589844 352.367188 476.25 350.710938 476.25 Z M 350.710938 476.25 " clip-rule="nonzero"/></clipPath><clipPath id="9419d8a061"><path d="M 419.929688 508.925781 L 425.921875 508.925781 L 425.921875 514.917969 L 419.929688 514.917969 Z M 419.929688 508.925781 " clip-rule="nonzero"/></clipPath><clipPath id="f64f375fb5"><path d="M 422.925781 508.925781 C 421.269531 508.925781 419.929688 510.265625 419.929688 511.921875 C 419.929688 513.578125 421.269531 514.917969 422.925781 514.917969 C 424.578125 514.917969 425.921875 513.578125 425.921875 511.921875 C 425.921875 510.265625 424.578125 508.925781 422.925781 508.925781 Z M 422.925781 508.925781 " clip-rule="nonzero"/></clipPath></defs><path stroke-linecap="butt" transform="matrix(-0.75, 0, 0, -0.75, 728.999967, 622.968733)" fill="none" stroke-linejoin="miter" d="M -0.0000442333 5.499977 L 863.999999 5.499977 " stroke="#ffffff" stroke-width="11" stroke-opacity="1" stroke-miterlimit="4"/><g clip-path="url(#c5929e8949)"><path fill="#ffffff" d="M 181.136719 511.921875 L 242.683594 511.921875 L 242.683594 618.914062 L 181.136719 618.914062 Z M 181.136719 511.921875 " fill-opacity="1" fill-rule="nonzero"/></g><g clip-path="url(#9646ef63f9)"><g clip-path="url(#63c3edbf9d)"><path fill="#ffffff" d="M 121.214844 618.84375 L 121.214844 405.003906 L 182.449219 405.003906 L 182.449219 618.84375 Z M 121.214844 618.84375 " fill-opacity="1" fill-rule="nonzero"/></g></g><g clip-path="url(#dde464b7d6)"><path fill="#ffffff" d="M 249.300781 494.410156 L 310.847656 494.410156 L 310.847656 618.949219 L 249.300781 618.949219 Z M 249.300781 494.410156 " fill-opacity="1" fill-rule="nonzero"/></g><g clip-path="url(#7f6e1f2f11)"><path fill="#ffffff" d="M 280.074219 458.800781 L 341.625 458.800781 L 341.625 618.925781 L 280.074219 618.925781 Z M 280.074219 458.800781 " fill-opacity="1" fill-rule="nonzero"/></g><path stroke-linecap="butt" transform="matrix(0.000000001309, -0.75, 0.75, 0.000000001309, 347.708132, 618.841165)" fill="none" stroke-linejoin="miter" d="M 0.0017615 3.998533 L 186.131979 3.998533 " stroke="#ffffff" stroke-width="8" stroke-opacity="1" stroke-miterlimit="4"/><path stroke-linecap="butt" transform="matrix(0, -0.75, 0.75, 0, 419.893686, 618.843733)" fill="none" stroke-linejoin="miter" d="M -0.0000228443 4.001127 L 142.562484 4.001127 " stroke="#ffffff" stroke-width="8" stroke-opacity="1" stroke-miterlimit="4"/><path stroke-linecap="butt" transform="matrix(-0.683249, -0.309306, 0.309306, -0.683249, 421.652262, 514.653978)" fill="none" stroke-linejoin="miter" d="M -0.00187615 3.99954 L 105.646882 4.00234 " stroke="#ffffff" stroke-width="8" stroke-opacity="1" stroke-miterlimit="4"/><g clip-path="url(#4f8316cb06)"><path fill="#ffffff" d="M 394.683594 538.824219 L 486.269531 538.824219 L 486.269531 618.84375 L 394.683594 618.84375 Z M 394.683594 538.824219 " fill-opacity="1" fill-rule="nonzero"/></g><g clip-path="url(#1b5f9d556d)"><path fill="#ffffff" d="M 492.136719 494.410156 L 553.6875 494.410156 L 553.6875 618.949219 L 492.136719 618.949219 Z M 492.136719 494.410156 " fill-opacity="1" fill-rule="nonzero"/></g><g clip-path="url(#95bdfc57fc)"><path fill="#ffffff" d="M 522.914062 458.800781 L 584.460938 458.800781 L 584.460938 618.925781 L 522.914062 618.925781 Z M 522.914062 458.800781 " fill-opacity="1" fill-rule="nonzero"/></g><g clip-path="url(#0de3d5f82f)"><path fill="#ffffff" d="M 559.6875 494.410156 L 621.238281 494.410156 L 621.238281 618.949219 L 559.6875 618.949219 Z M 559.6875 494.410156 " fill-opacity="1" fill-rule="nonzero"/></g><g clip-path="url(#c4943713d2)"><path fill="#ffffff" d="M 627.238281 494.410156 L 688.789062 494.410156 L 688.789062 618.949219 L 627.238281 618.949219 Z M 627.238281 494.410156 " fill-opacity="1" fill-rule="nonzero"/></g><g clip-path="url(#7b406babca)"><g clip-path="url(#3f4fdcef66)"><path fill="#ffffff" d="M 326.628906 175.953125 L 483.371094 175.953125 L 483.371094 332.691406 L 326.628906 332.691406 Z M 326.628906 175.953125 " fill-opacity="1" fill-rule="nonzero"/></g></g><g clip-path="url(#7f9d2d604a)"><g clip-path="url(#1d03930166)"><path stroke-linecap="butt" transform="matrix(0.75, 0, 0, 0.75, 326.629881, 175.951653)" fill="none" stroke-linejoin="miter" d="M 104.493491 0.001963 C 46.785158 0.001963 -0.00129922 46.783212 -0.00129922 104.491545 C -0.00129922 162.199877 46.785158 208.986335 104.493491 208.986335 C 162.201824 208.986335 208.983073 162.199877 208.983073 104.491545 C 208.983073 46.783212 162.201824 0.001963 104.493491 0.001963 Z M 104.493491 0.001963 " stroke="#ffffff" stroke-width="22" stroke-opacity="1" stroke-miterlimit="4"/></g></g><g clip-path="url(#257a6c6482)"><g clip-path="url(#e5f3578b88)"><path fill="#ffffff" d="M 347.714844 476.25 L 353.707031 476.25 L 353.707031 482.242188 L 347.714844 482.242188 Z M 347.714844 476.25 " fill-opacity="1" fill-rule="nonzero"/></g></g><g clip-path="url(#9419d8a061)"><g clip-path="url(#f64f375fb5)"><path fill="#ffffff" d="M 419.929688 508.925781 L 425.921875 508.925781 L 425.921875 514.917969 L 419.929688 514.917969 Z M 419.929688 508.925781 " fill-opacity="1" fill-rule="nonzero"/></g></g></svg>