<svg xmlns="http://www.w3.org/2000/svg" xmlns:xlink="http://www.w3.org/1999/xlink" width="1080" zoomAndPan="magnify" viewBox="0 0 810 809.999993" height="1080" preserveAspectRatio="xMidYMid meet" version="1.0"><defs><clipPath id="7cd83cd653"><path d="M 315.742188 192.378906 L 494.257812 192.378906 L 494.257812 370.894531 L 315.742188 370.894531 Z M 315.742188 192.378906 " clip-rule="nonzero"/></clipPath><clipPath id="a61547f22e"><path d="M 405 192.378906 C 355.703125 192.378906 315.742188 232.34375 315.742188 281.636719 C 315.742188 330.933594 355.703125 370.894531 405 370.894531 C 454.296875 370.894531 494.257812 330.933594 494.257812 281.636719 C 494.257812 232.34375 454.296875 192.378906 405 192.378906 Z M 405 192.378906 " clip-rule="nonzero"/></clipPath><clipPath id="6b44c49401"><path d="M 315.742188 192.378906 L 494.242188 192.378906 L 494.242188 370.878906 L 315.742188 370.878906 Z M 315.742188 192.378906 " clip-rule="nonzero"/></clipPath><clipPath id="f035581d05"><path d="M 404.996094 192.378906 C 355.703125 192.378906 315.742188 232.339844 315.742188 281.636719 C 315.742188 330.929688 355.703125 370.890625 404.996094 370.890625 C 454.292969 370.890625 494.253906 330.929688 494.253906 281.636719 C 494.253906 232.339844 454.292969 192.378906 404.996094 192.378906 Z M 404.996094 192.378906 " clip-rule="nonzero"/></clipPath><clipPath id="42f3fd53ed"><path d="M 147.121094 489.734375 L 219.269531 489.734375 L 219.269531 615.070312 L 147.121094 615.070312 Z M 147.121094 489.734375 " clip-rule="nonzero"/></clipPath><clipPath id="8ea7b70102"><path d="M 76 364.121094 L 147.777344 364.121094 L 147.777344 615.066406 L 76 615.066406 Z M 76 364.121094 " clip-rule="nonzero"/></clipPath><clipPath id="11a3a3ae3b"><path d="M 76 417.691406 L 76 615.066406 L 147.777344 615.066406 L 147.777344 417.691406 L 111.890625 364.398438 Z M 76 417.691406 " clip-rule="nonzero"/></clipPath><clipPath id="79edea61a8"><path d="M 226.144531 469.203125 L 298.292969 469.203125 L 298.292969 615.070312 L 226.144531 615.070312 Z M 226.144531 469.203125 " clip-rule="nonzero"/></clipPath><clipPath id="4652ca8aab"><path d="M 262.21875 427.46875 L 334.367188 427.46875 L 334.367188 615.070312 L 262.21875 615.070312 Z M 262.21875 427.46875 " clip-rule="nonzero"/></clipPath><clipPath id="4bc2327f47"><path d="M 396.566406 521.269531 L 503.769531 521.269531 L 503.769531 615.070312 L 396.566406 615.070312 Z M 396.566406 521.269531 " clip-rule="nonzero"/></clipPath><clipPath id="47f9f75533"><path d="M 510.800781 469.203125 L 582.949219 469.203125 L 582.949219 615.070312 L 510.800781 615.070312 Z M 510.800781 469.203125 " clip-rule="nonzero"/></clipPath><clipPath id="bc3ff698dd"><path d="M 546.875 427.46875 L 619.023438 427.46875 L 619.023438 615.070312 L 546.875 615.070312 Z M 546.875 427.46875 " clip-rule="nonzero"/></clipPath><clipPath id="bd2d9781d5"><path d="M 582.949219 469.203125 L 655.097656 469.203125 L 655.097656 615.070312 L 582.949219 615.070312 Z M 582.949219 469.203125 " clip-rule="nonzero"/></clipPath><clipPath id="4d188bb6bb"><path d="M 661.847656 469.203125 L 733.996094 469.203125 L 733.996094 615.070312 L 661.847656 615.070312 Z M 661.847656 469.203125 " clip-rule="nonzero"/></clipPath><clipPath id="8c669021d9"><path d="M 341.296875 447.707031 L 348.746094 447.707031 L 348.746094 455.15625 L 341.296875 455.15625 Z M 341.296875 447.707031 " clip-rule="nonzero"/></clipPath><clipPath id="9e1b51b239"><path d="M 345.019531 447.707031 C 342.964844 447.707031 341.296875 449.375 341.296875 451.429688 C 341.296875 453.488281 342.964844 455.15625 345.019531 455.15625 C 347.078125 455.15625 348.746094 453.488281 348.746094 451.429688 C 348.746094 449.375 347.078125 447.707031 345.019531 447.707031 Z M 345.019531 447.707031 " clip-rule="nonzero"/></clipPath><clipPath id="a27c0af608"><path d="M 425.90625 486.007812 L 433.359375 486.007812 L 433.359375 493.460938 L 425.90625 493.460938 Z M 425.90625 486.007812 " clip-rule="nonzero"/></clipPath><clipPath id="4b7fe9c2ab"><path d="M 429.632812 486.007812 C 427.574219 486.007812 425.90625 487.675781 425.90625 489.734375 C 425.90625 491.792969 427.574219 493.460938 429.632812 493.460938 C 431.691406 493.460938 433.359375 491.792969 433.359375 489.734375 C 433.359375 487.675781 431.691406 486.007812 429.632812 486.007812 Z M 429.632812 486.007812 " clip-rule="nonzero"/></clipPath></defs><path stroke-linecap="butt" transform="matrix(-0.75, 0, 0, -0.75, 784.792404, 619.943893)" fill="none" stroke-linejoin="miter" d="M -0.000752976 6.498107 L 1012.780548 6.498107 " stroke="#ffffff" stroke-width="13" stroke-opacity="1" stroke-miterlimit="4"/><g clip-path="url(#7cd83cd653)"><g clip-path="url(#a61547f22e)"><path fill="#ffffff" d="M 315.742188 192.378906 L 494.257812 192.378906 L 494.257812 370.894531 L 315.742188 370.894531 Z M 315.742188 192.378906 " fill-opacity="1" fill-rule="nonzero"/></g></g><g clip-path="url(#6b44c49401)"><g clip-path="url(#f035581d05)"><path stroke-linecap="butt" transform="matrix(0.75, 0, 0, 0.75, 315.742166, 192.380283)" fill="none" stroke-linejoin="miter" d="M 119.005243 -0.00183583 C 53.281281 -0.00183583 0.0000286461 53.279417 0.0000286461 119.008587 C 0.0000286461 184.732548 53.281281 238.013801 119.005243 238.013801 C 184.734413 238.013801 238.015666 184.732548 238.015666 119.008587 C 238.015666 53.279417 184.734413 -0.00183583 119.005243 -0.00183583 Z M 119.005243 -0.00183583 " stroke="#ffffff" stroke-width="22" stroke-opacity="1" stroke-miterlimit="4"/></g></g><g clip-path="url(#42f3fd53ed)"><path fill="#ffffff" d="M 147.121094 489.734375 L 219.269531 489.734375 L 219.269531 615.148438 L 147.121094 615.148438 Z M 147.121094 489.734375 " fill-opacity="1" fill-rule="nonzero"/></g><g clip-path="url(#8ea7b70102)"><g clip-path="url(#11a3a3ae3b)"><path fill="#ffffff" d="M 76 615.066406 L 76 364.402344 L 147.777344 364.402344 L 147.777344 615.066406 Z M 76 615.066406 " fill-opacity="1" fill-rule="nonzero"/></g></g><g clip-path="url(#79edea61a8)"><path fill="#ffffff" d="M 226.144531 469.203125 L 298.292969 469.203125 L 298.292969 615.195312 L 226.144531 615.195312 Z M 226.144531 469.203125 " fill-opacity="1" fill-rule="nonzero"/></g><g clip-path="url(#4652ca8aab)"><path fill="#ffffff" d="M 262.21875 427.46875 L 334.367188 427.46875 L 334.367188 615.167969 L 262.21875 615.167969 Z M 262.21875 427.46875 " fill-opacity="1" fill-rule="nonzero"/></g><path stroke-linecap="butt" transform="matrix(0.000000001309, -0.75, 0.75, 0.000000001309, 341.265572, 615.064213)" fill="none" stroke-linejoin="miter" d="M 0.00228408 5.000071 L 218.184587 5.000071 " stroke="#ffffff" stroke-width="10" stroke-opacity="1" stroke-miterlimit="4"/><path stroke-linecap="butt" transform="matrix(0, -0.75, 0.75, 0, 425.882238, 615.067837)" fill="none" stroke-linejoin="miter" d="M 0.00190774 5.000766 L 167.111291 5.000766 " stroke="#ffffff" stroke-width="10" stroke-opacity="1" stroke-miterlimit="4"/><path stroke-linecap="butt" transform="matrix(-0.683249, -0.309306, 0.309306, -0.683249, 428.078862, 493.149379)" fill="none" stroke-linejoin="miter" d="M -0.00020871 4.998275 L 123.839525 4.998771 " stroke="#ffffff" stroke-width="10" stroke-opacity="1" stroke-miterlimit="4"/><g clip-path="url(#4bc2327f47)"><path fill="#ffffff" d="M 396.566406 521.269531 L 503.921875 521.269531 L 503.921875 615.070312 L 396.566406 615.070312 Z M 396.566406 521.269531 " fill-opacity="1" fill-rule="nonzero"/></g><g clip-path="url(#47f9f75533)"><path fill="#ffffff" d="M 510.800781 469.203125 L 582.949219 469.203125 L 582.949219 615.195312 L 510.800781 615.195312 Z M 510.800781 469.203125 " fill-opacity="1" fill-rule="nonzero"/></g><g clip-path="url(#bc3ff698dd)"><path fill="#ffffff" d="M 546.875 427.46875 L 619.023438 427.46875 L 619.023438 615.167969 L 546.875 615.167969 Z M 546.875 427.46875 " fill-opacity="1" fill-rule="nonzero"/></g><g clip-path="url(#bd2d9781d5)"><path fill="#ffffff" d="M 582.949219 469.203125 L 655.097656 469.203125 L 655.097656 615.195312 L 582.949219 615.195312 Z M 582.949219 469.203125 " fill-opacity="1" fill-rule="nonzero"/></g><g clip-path="url(#4d188bb6bb)"><path fill="#ffffff" d="M 661.847656 469.203125 L 733.996094 469.203125 L 733.996094 615.195312 L 661.847656 615.195312 Z M 661.847656 469.203125 " fill-opacity="1" fill-rule="nonzero"/></g><g clip-path="url(#8c669021d9)"><g clip-path="url(#9e1b51b239)"><path fill="#ffffff" d="M 341.296875 447.707031 L 348.746094 447.707031 L 348.746094 455.15625 L 341.296875 455.15625 Z M 341.296875 447.707031 " fill-opacity="1" fill-rule="nonzero"/></g></g><g clip-path="url(#a27c0af608)"><g clip-path="url(#4b7fe9c2ab)"><path fill="#ffffff" d="M 425.90625 486.007812 L 433.359375 486.007812 L 433.359375 493.460938 L 425.90625 493.460938 Z M 425.90625 486.007812 " fill-opacity="1" fill-rule="nonzero"/></g></g></svg>