<svg xmlns="http://www.w3.org/2000/svg" xmlns:xlink="http://www.w3.org/1999/xlink" width="1080" zoomAndPan="magnify" viewBox="0 0 810 809.999993" height="1080" preserveAspectRatio="xMidYMid meet" version="1.0"><defs><clipPath id="6a4c7311a8"><path d="M 413.65625 466.117188 L 687.027344 466.117188 L 687.027344 645.3125 L 413.65625 645.3125 Z M 413.65625 466.117188 " clip-rule="nonzero"/></clipPath><clipPath id="92887fe71c"><path d="M 95.480469 491.570312 L 184.730469 491.570312 L 184.730469 580.820312 L 95.480469 580.820312 Z M 95.480469 491.570312 " clip-rule="nonzero"/></clipPath><clipPath id="a65a2e473f"><path d="M 140.273438 491.570312 C 115.535156 491.570312 95.480469 511.628906 95.480469 536.367188 C 95.480469 561.105469 115.535156 581.160156 140.273438 581.160156 C 165.015625 581.160156 185.070312 561.105469 185.070312 536.367188 C 185.070312 511.628906 165.015625 491.570312 140.273438 491.570312 Z M 140.273438 491.570312 " clip-rule="nonzero"/></clipPath><clipPath id="6e73e96a2c"><path d="M 288.640625 158.914062 L 299.136719 158.914062 L 299.136719 169.414062 L 288.640625 169.414062 Z M 288.640625 158.914062 " clip-rule="nonzero"/></clipPath><clipPath id="069efb7450"><path d="M 293.890625 158.914062 C 290.988281 158.914062 288.640625 161.265625 288.640625 164.164062 C 288.640625 167.0625 290.988281 169.414062 293.890625 169.414062 C 296.789062 169.414062 299.136719 167.0625 299.136719 164.164062 C 299.136719 161.265625 296.789062 158.914062 293.890625 158.914062 Z M 293.890625 158.914062 " clip-rule="nonzero"/></clipPath><clipPath id="e311e8cfd5"><path d="M 509.175781 274.300781 L 519.671875 274.300781 L 519.671875 284.800781 L 509.175781 284.800781 Z M 509.175781 274.300781 " clip-rule="nonzero"/></clipPath><clipPath id="8c1c539db1"><path d="M 514.421875 274.300781 C 511.523438 274.300781 509.175781 276.652344 509.175781 279.550781 C 509.175781 282.449219 511.523438 284.800781 514.421875 284.800781 C 517.324219 284.800781 519.671875 282.449219 519.671875 279.550781 C 519.671875 276.652344 517.324219 274.300781 514.421875 274.300781 Z M 514.421875 274.300781 " clip-rule="nonzero"/></clipPath></defs><path stroke-linecap="butt" transform="matrix(-0.75, 0, 0, -0.75, 769.499965, 650.563283)" fill="none" stroke-linejoin="miter" d="M -0.00004695 7.001045 L 972.000002 7.001045 " stroke="#ffffff" stroke-width="14" stroke-opacity="1" stroke-miterlimit="4"/><g clip-path="url(#6a4c7311a8)"><path fill="#ffffff" d="M 413.65625 466.117188 L 687.347656 466.117188 L 687.347656 645.3125 L 413.65625 645.3125 Z M 413.65625 466.117188 " fill-opacity="1" fill-rule="nonzero"/></g><g clip-path="url(#92887fe71c)"><g clip-path="url(#a65a2e473f)"><path stroke-linecap="butt" transform="matrix(0.75, 0, 0, 0.75, 95.480449, 491.571667)" fill="none" stroke-linejoin="miter" d="M 59.723988 -0.00180636 C 26.739611 -0.00180636 0.0000262047 26.742987 0.0000262047 59.727363 C 0.0000262047 92.71174 26.739611 119.451325 59.723988 119.451325 C 92.713573 119.451325 119.453157 92.71174 119.453157 59.727363 C 119.453157 26.742987 92.713573 -0.00180636 59.723988 -0.00180636 Z M 59.723988 -0.00180636 " stroke="#ffffff" stroke-width="28" stroke-opacity="1" stroke-miterlimit="4"/></g></g><path stroke-linecap="butt" transform="matrix(0, 0.75, -0.75, 0, 145.525763, 581.172999)" fill="none" stroke-linejoin="miter" d="M -0.00149835 6.997892 L 85.524548 6.997892 " stroke="#ffffff" stroke-width="14" stroke-opacity="1" stroke-miterlimit="4"/><path stroke-linecap="butt" transform="matrix(0, 0.75, -0.75, 0, 299.138837, 164.164742)" fill="none" stroke-linejoin="miter" d="M -0.000906188 6.997617 L 641.530376 6.997617 " stroke="#ffffff" stroke-width="14" stroke-opacity="1" stroke-miterlimit="4"/><path stroke-linecap="butt" transform="matrix(0.664538, 0.347692, -0.347692, 0.664538, 296.322733, 159.513206)" fill="none" stroke-linejoin="miter" d="M 0.00148569 6.997855 L 331.859915 7.001403 " stroke="#ffffff" stroke-width="14" stroke-opacity="1" stroke-miterlimit="4"/><path stroke-linecap="butt" transform="matrix(0.00346019, 0.749992, -0.749992, 0.00346019, 519.672697, 279.526588)" fill="none" stroke-linejoin="miter" d="M -0.0000422662 7.001171 L 487.687486 7.001163 " stroke="#ffffff" stroke-width="14" stroke-opacity="1" stroke-miterlimit="4"/><g clip-path="url(#6e73e96a2c)"><g clip-path="url(#069efb7450)"><path fill="#ffffff" d="M 288.640625 158.914062 L 299.136719 158.914062 L 299.136719 169.414062 L 288.640625 169.414062 Z M 288.640625 158.914062 " fill-opacity="1" fill-rule="nonzero"/></g></g><g clip-path="url(#e311e8cfd5)"><g clip-path="url(#8c1c539db1)"><path fill="#ffffff" d="M 509.175781 274.300781 L 519.671875 274.300781 L 519.671875 284.800781 L 509.175781 284.800781 Z M 509.175781 274.300781 " fill-opacity="1" fill-rule="nonzero"/></g></g></svg>