<svg xmlns="http://www.w3.org/2000/svg" xmlns:xlink="http://www.w3.org/1999/xlink" width="6912" zoomAndPan="magnify" viewBox="0 0 5184 863.999991" height="1152" preserveAspectRatio="xMidYMid meet" version="1.0"><defs><clipPath id="b6a9b3f0d6"><path d="M 605 115 L 786 115 L 786 296 L 605 296 Z M 605 115 " clip-rule="nonzero"/></clipPath><clipPath id="d315d39bde"><path d="M 609.644531 111.378906 L 790.199219 119.75 L 781.828125 300.304688 L 601.273438 291.933594 Z M 609.644531 111.378906 " clip-rule="nonzero"/></clipPath><clipPath id="b4dc0fe7e5"><path d="M 609.644531 111.378906 L 789.941406 119.738281 L 781.582031 300.035156 L 601.285156 291.675781 Z M 609.644531 111.378906 " clip-rule="nonzero"/></clipPath><clipPath id="1793464c7b"><path d="M 699.792969 115.558594 C 650.003906 113.25 607.773438 151.738281 605.464844 201.527344 C 603.15625 251.316406 641.644531 293.546875 691.433594 295.855469 C 741.222656 298.164062 783.453125 259.675781 785.761719 209.886719 C 788.070312 160.097656 749.582031 117.867188 699.792969 115.558594 Z M 699.792969 115.558594 " clip-rule="nonzero"/></clipPath><clipPath id="e92f79faee"><path d="M 3105 312 L 3487 312 L 3487 694 L 3105 694 Z M 3105 312 " clip-rule="nonzero"/></clipPath><clipPath id="c71b958b46"><path d="M 3180.601562 312.222656 L 3486.46875 387.523438 L 3411.171875 693.390625 L 3105.300781 618.089844 Z M 3180.601562 312.222656 " clip-rule="nonzero"/></clipPath><clipPath id="91bbd6d94f"><path d="M 3180.601562 312.222656 L 3486.753906 387.59375 L 3411.386719 693.746094 L 3105.234375 618.375 Z M 3180.601562 312.222656 " clip-rule="nonzero"/></clipPath><clipPath id="4f741aa10c"><path d="M 1203 447 L 1521 447 L 1521 790 L 1203 790 Z M 1203 447 " clip-rule="nonzero"/></clipPath><clipPath id="2b6b56cd81"><path d="M 1384.097656 344.628906 L 1656.945312 550.828125 L 1476.523438 789.566406 L 1203.675781 583.367188 Z M 1384.097656 344.628906 " clip-rule="nonzero"/></clipPath><clipPath id="fa78cca95b"><path d="M 1384.097656 344.628906 L 1656.871094 550.769531 L 1476.496094 789.445312 L 1203.722656 583.304688 Z M 1384.097656 344.628906 " clip-rule="nonzero"/></clipPath><clipPath id="354d174e66"><path d="M 1520.484375 447.699219 L 1476.496094 789.445312 L 1203.722656 583.304688 Z M 1520.484375 447.699219 " clip-rule="nonzero"/></clipPath><clipPath id="904d45f77e"><path d="M 2716 26 L 2897 26 L 2897 208 L 2716 208 Z M 2716 26 " clip-rule="nonzero"/></clipPath><clipPath id="b0a7c31a85"><path d="M 2720.589844 22.808594 L 2901.144531 31.179688 L 2892.773438 211.734375 L 2712.21875 203.363281 Z M 2720.589844 22.808594 " clip-rule="nonzero"/></clipPath><clipPath id="9b2f20bf14"><path d="M 2720.589844 22.808594 L 2900.886719 31.167969 L 2892.527344 211.464844 L 2712.230469 203.105469 Z M 2720.589844 22.808594 " clip-rule="nonzero"/></clipPath><clipPath id="4cc464de7a"><path d="M 2810.738281 26.988281 C 2760.949219 24.679688 2718.71875 63.167969 2716.410156 112.957031 C 2714.101562 162.742188 2752.589844 204.976562 2802.378906 207.285156 C 2852.167969 209.59375 2894.398438 171.105469 2896.707031 121.316406 C 2899.015625 71.527344 2860.527344 29.296875 2810.738281 26.988281 Z M 2810.738281 26.988281 " clip-rule="nonzero"/></clipPath><clipPath id="851afc238e"><path d="M 4466 656 L 4648 656 L 4648 838 L 4466 838 Z M 4466 656 " clip-rule="nonzero"/></clipPath><clipPath id="c9bd0beb06"><path d="M 4470.90625 652.53125 L 4651.464844 660.90625 L 4643.09375 841.460938 L 4462.535156 833.089844 Z M 4470.90625 652.53125 " clip-rule="nonzero"/></clipPath><clipPath id="e281cb4184"><path d="M 4470.90625 652.53125 L 4651.207031 660.890625 L 4642.847656 841.191406 L 4462.546875 832.832031 Z M 4470.90625 652.53125 " clip-rule="nonzero"/></clipPath><clipPath id="d1d7c16973"><path d="M 4561.058594 656.710938 C 4511.269531 654.402344 4469.035156 692.894531 4466.726562 742.683594 C 4464.417969 792.46875 4502.910156 834.703125 4552.699219 837.011719 C 4602.484375 839.320312 4644.71875 800.828125 4647.027344 751.042969 C 4649.335938 701.253906 4610.84375 659.019531 4561.058594 656.710938 Z M 4561.058594 656.710938 " clip-rule="nonzero"/></clipPath><clipPath id="7dc9761ff7"><path d="M 4116 161 L 4433 161 L 4433 504 L 4116 504 Z M 4116 161 " clip-rule="nonzero"/></clipPath><clipPath id="94bc382c60"><path d="M 4002.925781 226.3125 L 4319.496094 96.902344 L 4432.730469 373.902344 L 4116.160156 503.3125 Z M 4002.925781 226.3125 " clip-rule="nonzero"/></clipPath><clipPath id="78dba89edd"><path d="M 4002.925781 226.3125 L 4319.410156 96.9375 L 4432.613281 373.859375 L 4116.128906 503.234375 Z M 4002.925781 226.3125 " clip-rule="nonzero"/></clipPath><clipPath id="f9b1903b8c"><path d="M 4161.167969 161.625 L 4432.613281 373.859375 L 4116.128906 503.234375 Z M 4161.167969 161.625 " clip-rule="nonzero"/></clipPath><clipPath id="017c590a8b"><path d="M 0 353 L 382 353 L 382 735 L 0 735 Z M 0 353 " clip-rule="nonzero"/></clipPath><clipPath id="ccce3de6fb"><path d="M 75.367188 353.664062 L 381.238281 428.964844 L 305.9375 734.832031 L 0.0703125 659.53125 Z M 75.367188 353.664062 " clip-rule="nonzero"/></clipPath><clipPath id="ae767d3e7e"><path d="M 75.367188 353.664062 L 381.519531 429.035156 L 306.152344 735.1875 L 0 659.816406 Z M 75.367188 353.664062 " clip-rule="nonzero"/></clipPath><clipPath id="44b5b33772"><path d="M 2020 598 L 2201 598 L 2201 780 L 2020 780 Z M 2020 598 " clip-rule="nonzero"/></clipPath><clipPath id="45d0804305"><path d="M 2024.660156 594.597656 L 2205.214844 602.96875 L 2196.84375 783.527344 L 2016.289062 775.15625 Z M 2024.660156 594.597656 " clip-rule="nonzero"/></clipPath><clipPath id="1f8fee0985"><path d="M 2024.660156 594.597656 L 2204.957031 602.957031 L 2196.597656 783.257812 L 2016.300781 774.898438 Z M 2024.660156 594.597656 " clip-rule="nonzero"/></clipPath><clipPath id="2b26bae2c6"><path d="M 2114.808594 598.777344 C 2065.019531 596.46875 2022.789062 634.960938 2020.480469 684.746094 C 2018.171875 734.535156 2056.660156 776.769531 2106.449219 779.078125 C 2156.238281 781.386719 2198.46875 742.894531 2200.777344 693.105469 C 2203.085938 643.320312 2164.597656 601.085938 2114.808594 598.777344 Z M 2114.808594 598.777344 " clip-rule="nonzero"/></clipPath><clipPath id="5a127e38fc"><path d="M 4850 169 L 5032 169 L 5032 350 L 4850 350 Z M 4850 169 " clip-rule="nonzero"/></clipPath><clipPath id="a58bc77545"><path d="M 4854.984375 165.003906 L 5035.539062 173.375 L 5027.167969 353.929688 L 4846.613281 345.558594 Z M 4854.984375 165.003906 " clip-rule="nonzero"/></clipPath><clipPath id="8ad2e25acc"><path d="M 4854.984375 165.003906 L 5035.28125 173.363281 L 5026.921875 353.664062 L 4846.625 345.300781 Z M 4854.984375 165.003906 " clip-rule="nonzero"/></clipPath><clipPath id="2a465623b3"><path d="M 4945.132812 169.183594 C 4895.34375 166.875 4853.113281 205.367188 4850.804688 255.152344 C 4848.496094 304.941406 4886.984375 347.175781 4936.773438 349.480469 C 4986.5625 351.789062 5028.792969 313.300781 5031.101562 263.511719 C 5033.410156 213.726562 4994.921875 171.492188 4945.132812 169.183594 Z M 4945.132812 169.183594 " clip-rule="nonzero"/></clipPath></defs><g clip-path="url(#b6a9b3f0d6)"><g clip-path="url(#d315d39bde)"><g clip-path="url(#b4dc0fe7e5)"><g clip-path="url(#1793464c7b)"><path stroke-linecap="butt" transform="matrix(0.749195, 0.0347362, -0.0347362, 0.749195, 609.643771, 111.378509)" fill="none" stroke-linejoin="miter" d="M 120.328096 0.000456665 C 53.871345 0.000273054 0.00124727 53.87079 0.00106366 120.327541 C 0.00088005 186.784292 53.871397 240.65439 120.328148 240.654574 C 186.784899 240.654757 240.654997 186.78424 240.655181 120.327489 C 240.655364 53.870738 186.784847 0.000640276 120.328096 0.000456665 Z M 120.328096 0.000456665 " stroke="#ff3131" stroke-width="24" stroke-opacity="1" stroke-miterlimit="4"/></g></g></g></g><g clip-path="url(#e92f79faee)"><g clip-path="url(#c71b958b46)"><g clip-path="url(#91bbd6d94f)"><path stroke-linecap="butt" transform="matrix(0.728257, 0.179281, -0.179281, 0.728257, 3180.600798, 312.223655)" fill="none" stroke-linejoin="miter" d="M 0.000672028 -0.00153693 L 420.392164 0.00220313 L 420.393481 420.39245 L 0.00198931 420.38871 Z M 0.000672028 -0.00153693 " stroke="#ff3131" stroke-width="24" stroke-opacity="1" stroke-miterlimit="4"/></g></g></g><g clip-path="url(#4f741aa10c)"><g clip-path="url(#2b6b56cd81)"><g clip-path="url(#fa78cca95b)"><g clip-path="url(#354d174e66)"><path stroke-linecap="butt" transform="matrix(0.59835, 0.452192, -0.452192, 0.59835, 1384.099178, 344.627229)" fill="none" stroke-linejoin="miter" d="M 227.936671 0.00135048 L 455.873651 398.889874 L -0.000234131 398.893188 Z M 227.936671 0.00135048 " stroke="#ffffff" stroke-width="24" stroke-opacity="1" stroke-miterlimit="4"/></g></g></g></g><g clip-path="url(#904d45f77e)"><g clip-path="url(#b0a7c31a85)"><g clip-path="url(#9b2f20bf14)"><g clip-path="url(#4cc464de7a)"><path stroke-linecap="butt" transform="matrix(0.749195, 0.0347362, -0.0347362, 0.749195, 2720.589269, 22.80677)" fill="none" stroke-linejoin="miter" d="M 120.327936 0.00236762 C 53.871185 0.00218401 0.00108722 53.872701 0.000903611 120.329452 C 0.000478776 186.781 53.871237 240.656301 120.327988 240.656485 C 186.784739 240.656668 240.654837 186.786151 240.655021 120.3294 C 240.655204 53.872649 186.784687 0.00255123 120.327936 0.00236762 Z M 120.327936 0.00236762 " stroke="#ffffff" stroke-width="24" stroke-opacity="1" stroke-miterlimit="4"/></g></g></g></g><g clip-path="url(#851afc238e)"><g clip-path="url(#c9bd0beb06)"><g clip-path="url(#e281cb4184)"><g clip-path="url(#d1d7c16973)"><path stroke-linecap="butt" transform="matrix(0.749195, 0.0347362, -0.0347362, 0.749195, 4470.907715, 652.532986)" fill="none" stroke-linejoin="miter" d="M 120.330203 -0.00248921 C 53.873693 0.00252992 -0.0016074 53.873288 -0.00179102 120.330039 C -0.00221585 186.781588 53.873745 240.656647 120.330496 240.656831 C 186.782045 240.657256 240.657104 186.781295 240.657529 120.329746 C 240.657713 53.872995 186.781751 -0.00206438 120.330203 -0.00248921 Z M 120.330203 -0.00248921 " stroke="#ffffff" stroke-width="24" stroke-opacity="1" stroke-miterlimit="4"/></g></g></g></g><g clip-path="url(#7dc9761ff7)"><g clip-path="url(#94bc382c60)"><g clip-path="url(#78dba89edd)"><g clip-path="url(#f9b1903b8c)"><path stroke-linecap="butt" transform="matrix(0.694234, -0.283794, 0.283794, 0.694234, 4002.925595, 226.311951)" fill="none" stroke-linejoin="miter" d="M 227.93781 0.000520457 L 455.877091 398.889109 L 0.00137685 398.88961 Z M 227.93781 0.000520457 " stroke="#ffffff" stroke-width="24" stroke-opacity="1" stroke-miterlimit="4"/></g></g></g></g><g clip-path="url(#017c590a8b)"><g clip-path="url(#ccce3de6fb)"><g clip-path="url(#ae767d3e7e)"><path stroke-linecap="butt" transform="matrix(0.728257, 0.179281, -0.179281, 0.728257, 75.369061, 353.665255)" fill="none" stroke-linejoin="miter" d="M -0.00280498 -0.000946262 L 420.388687 0.0027938 L 420.390004 420.393041 L -0.0014877 420.389301 Z M -0.00280498 -0.000946262 " stroke="#ffffff" stroke-width="24" stroke-opacity="1" stroke-miterlimit="4"/></g></g></g><g clip-path="url(#44b5b33772)"><g clip-path="url(#45d0804305)"><g clip-path="url(#1f8fee0985)"><g clip-path="url(#2b26bae2c6)"><path stroke-linecap="butt" transform="matrix(0.749195, 0.0347362, -0.0347362, 0.749195, 2024.659601, 594.598357)" fill="none" stroke-linejoin="miter" d="M 120.327754 -0.000993855 C 53.871003 -0.00117747 0.00114656 53.874542 0.000721723 120.326091 C 0.000538112 186.782842 53.871296 240.658142 120.328047 240.658326 C 186.784799 240.65851 240.654655 186.78279 240.654839 120.326039 C 240.655264 53.874491 186.784505 -0.000810244 120.327754 -0.000993855 Z M 120.327754 -0.000993855 " stroke="#ff3131" stroke-width="24" stroke-opacity="1" stroke-miterlimit="4"/></g></g></g></g><g clip-path="url(#5a127e38fc)"><g clip-path="url(#a58bc77545)"><g clip-path="url(#8ad2e25acc)"><g clip-path="url(#2a465623b3)"><path stroke-linecap="butt" transform="matrix(0.749195, 0.0347362, -0.0347362, 0.749195, 4854.983295, 165.004156)" fill="none" stroke-linejoin="miter" d="M 120.328482 -0.000425633 C 53.871731 -0.000609243 0.00187389 53.875111 0.00144906 120.326659 C 0.00126545 186.78341 53.872024 240.658711 120.328534 240.653692 C 186.785285 240.653875 240.655383 186.783358 240.655566 120.326607 C 240.655991 53.875059 186.785233 -0.000242022 120.328482 -0.000425633 Z M 120.328482 -0.000425633 " stroke="#ff3131" stroke-width="24" stroke-opacity="1" stroke-miterlimit="4"/></g></g></g></g></svg>