<svg xmlns="http://www.w3.org/2000/svg" xmlns:xlink="http://www.w3.org/1999/xlink" width="1152" zoomAndPan="magnify" viewBox="0 0 864 431.999984" height="576" preserveAspectRatio="xMidYMid meet" version="1.0"><defs><clipPath id="9271292b64"><path d="M 0 143.640625 L 864 143.640625 L 864 431.640625 L 0 431.640625 Z M 0 143.640625 " clip-rule="nonzero"/></clipPath></defs><g clip-path="url(#9271292b64)"><path fill="#ffffff" d="M 837.605469 426.472656 L 837.605469 329.953125 L 818.417969 305.320312 L 779.691406 305.8125 L 761.484375 330.445312 L 761.484375 426.472656 L 753.277344 426.472656 L 753.277344 389.65625 L 732.308594 389.65625 L 732.308594 375.070312 L 698.578125 375.070312 L 698.578125 426.472656 L 692.902344 426.472656 L 692.902344 297.699219 L 687.433594 297.699219 L 687.433594 338.714844 L 644.292969 381.855469 L 644.292969 426.472656 L 636.789062 426.472656 L 636.789062 213.351562 L 615.617188 186 L 615.617188 143.597656 L 610.148438 143.597656 L 610.148438 186.011719 L 589.265625 213.359375 L 589.265625 426.472656 L 575.742188 426.472656 L 575.742188 357.363281 L 550.339844 331.964844 L 550.339844 296.832031 L 522.035156 268.527344 L 522.035156 206.082031 L 516.566406 206.082031 L 516.566406 426.472656 L 502.074219 426.472656 L 502.074219 324.917969 L 483.433594 324.917969 L 483.433594 295.757812 L 464.746094 295.757812 L 464.746094 279.804688 L 450.15625 279.804688 L 450.15625 296.214844 L 429.644531 296.214844 L 429.644531 324.917969 L 412.339844 324.917969 L 412.339844 426.472656 L 390.71875 426.472656 L 390.71875 278.675781 L 303.441406 278.675781 L 303.441406 426.472656 L 287.953125 426.472656 L 287.953125 345.160156 L 266.542969 327.28125 L 266.542969 279.535156 L 261.074219 279.535156 L 261.074219 327.296875 L 240.113281 345.179688 L 240.113281 426.472656 L 216.378906 426.472656 L 216.378906 298.828125 L 152.277344 262.949219 L 152.277344 206.082031 L 146.804688 206.082031 L 146.804688 426.472656 L 139.269531 426.472656 L 139.269531 384.226562 L 105.738281 384.226562 L 105.738281 329.1875 L 88.976562 329.1875 L 88.976562 252.574219 L 83.507812 252.574219 L 83.507812 305.367188 L 69.425781 319.445312 L 69.425781 413.238281 L 60.476562 413.238281 L 60.476562 364.039062 L 42.039062 345.59375 L 42.039062 323.675781 L 36.570312 323.675781 L 36.570312 426.472656 L 0.414062 426.472656 L 0.414062 431.941406 L 42.039062 431.941406 L 42.039062 353.332031 L 55.007812 366.304688 L 55.007812 418.707031 L 74.894531 418.707031 L 74.894531 321.710938 L 83.507812 313.101562 L 83.507812 334.660156 L 100.269531 334.660156 L 100.269531 389.695312 L 133.796875 389.695312 L 133.796875 431.941406 L 152.277344 431.941406 L 152.277344 269.21875 L 210.910156 302.035156 L 210.910156 431.941406 L 245.582031 431.941406 L 245.582031 347.703125 L 263.828125 332.136719 L 282.484375 347.722656 L 282.484375 431.941406 L 308.910156 431.941406 L 308.910156 284.144531 L 385.25 284.144531 L 385.25 431.941406 L 417.808594 431.941406 L 417.808594 330.390625 L 435.117188 330.390625 L 435.117188 301.683594 L 455.628906 301.683594 L 455.628906 285.273438 L 459.273438 285.273438 L 459.273438 301.226562 L 477.964844 301.226562 L 477.964844 330.390625 L 496.605469 330.390625 L 496.605469 431.941406 L 522.035156 431.941406 L 522.035156 276.261719 L 544.867188 299.097656 L 544.867188 334.226562 L 570.273438 359.632812 L 570.273438 431.941406 L 594.734375 431.941406 L 594.734375 215.214844 L 612.898438 191.425781 L 631.316406 215.21875 L 631.316406 431.941406 L 649.765625 431.941406 L 649.765625 384.117188 L 687.433594 346.449219 L 687.433594 431.941406 L 704.050781 431.941406 L 704.050781 380.539062 L 726.839844 380.539062 L 726.839844 395.125 L 747.808594 395.125 L 747.808594 431.941406 L 766.953125 431.941406 L 766.953125 332.25 L 782.476562 311.246094 L 815.773438 310.824219 L 832.136719 331.832031 L 832.136719 431.941406 L 863.585938 431.941406 L 863.585938 426.472656 L 837.605469 426.472656 " fill-opacity="1" fill-rule="nonzero"/></g></svg>