<svg xmlns="http://www.w3.org/2000/svg" xmlns:xlink="http://www.w3.org/1999/xlink" width="1080" zoomAndPan="magnify" viewBox="0 0 810 809.999993" height="1080" preserveAspectRatio="xMidYMid meet" version="1.0"><path fill="#000000" d="M 629.507812 657.65625 L 629.507812 623.582031 C 653.625 620.945312 672.453125 600.472656 672.453125 575.679688 C 672.453125 549.097656 650.824219 527.472656 624.238281 527.472656 C 597.652344 527.472656 576.027344 549.097656 576.027344 575.679688 C 576.027344 600.472656 594.855469 620.945312 618.96875 623.582031 L 618.96875 657.65625 L 562.515625 657.65625 L 562.515625 302.226562 L 478.972656 302.226562 L 478.972656 135.683594 L 288.632812 135.683594 L 288.632812 456.890625 L 261.527344 480.132812 L 202.144531 429.234375 L 137.492188 484.65625 L 137.492188 657.664062 L 80.191406 657.664062 L 80.191406 668.203125 L 726.753906 668.203125 L 726.753906 657.664062 L 629.507812 657.664062 Z M 586.570312 575.6875 C 586.570312 554.917969 603.464844 538.019531 624.238281 538.019531 C 645.011719 538.019531 661.910156 554.917969 661.910156 575.6875 C 661.910156 596.453125 645.011719 613.351562 624.238281 613.351562 C 603.464844 613.351562 586.570312 596.453125 586.570312 575.6875 Z M 148.03125 657.65625 L 148.03125 489.496094 L 202.144531 443.121094 L 261.527344 494.015625 L 320.902344 443.121094 L 380.285156 494.015625 L 439.667969 443.121094 L 493.773438 489.496094 L 493.773438 657.664062 L 148.03125 657.664062 Z M 504.320312 657.65625 L 504.320312 484.648438 L 439.675781 429.230469 L 380.292969 480.125 L 320.910156 429.230469 L 299.179688 447.847656 L 299.179688 146.222656 L 468.429688 146.222656 L 468.429688 312.765625 L 551.972656 312.765625 L 551.972656 657.664062 L 504.320312 657.664062 Z M 504.320312 657.65625 " fill-opacity="1" fill-rule="nonzero"/></svg>