<svg xmlns="http://www.w3.org/2000/svg" xmlns:xlink="http://www.w3.org/1999/xlink" width="1080" zoomAndPan="magnify" viewBox="0 0 810 809.999993" height="1080" preserveAspectRatio="xMidYMid meet" version="1.0"><path fill="#ffffff" d="M 629.546875 657.828125 L 629.546875 623.742188 C 653.667969 621.105469 672.496094 600.628906 672.496094 575.824219 C 672.496094 549.238281 650.863281 527.605469 624.277344 527.605469 C 597.6875 527.605469 576.0625 549.238281 576.0625 575.824219 C 576.0625 600.628906 594.890625 621.105469 619.003906 623.742188 L 619.003906 657.828125 L 562.550781 657.828125 L 562.550781 302.296875 L 479 302.296875 L 479 135.707031 L 288.648438 135.707031 L 288.648438 457.003906 L 261.542969 480.253906 L 202.15625 429.34375 L 137.496094 484.777344 L 137.496094 657.835938 L 80.191406 657.835938 L 80.191406 668.378906 L 726.800781 668.378906 L 726.800781 657.835938 L 629.546875 657.835938 Z M 586.605469 575.832031 C 586.605469 555.058594 603.5 538.15625 624.277344 538.15625 C 645.050781 538.15625 661.953125 555.058594 661.953125 575.832031 C 661.953125 596.609375 645.050781 613.507812 624.277344 613.507812 C 603.5 613.507812 586.605469 596.609375 586.605469 575.832031 Z M 148.039062 657.828125 L 148.039062 489.621094 L 202.15625 443.230469 L 261.542969 494.140625 L 320.921875 443.230469 L 380.308594 494.140625 L 439.691406 443.230469 L 493.800781 489.621094 L 493.800781 657.835938 L 148.039062 657.835938 Z M 504.351562 657.828125 L 504.351562 484.769531 L 439.699219 429.335938 L 380.3125 480.246094 L 320.925781 429.335938 L 299.195312 447.957031 L 299.195312 146.25 L 468.457031 146.25 L 468.457031 312.839844 L 552.007812 312.839844 L 552.007812 657.835938 L 504.351562 657.835938 Z M 504.351562 657.828125 " fill-opacity="1" fill-rule="nonzero"/></svg>