<svg xmlns="http://www.w3.org/2000/svg" xmlns:xlink="http://www.w3.org/1999/xlink" width="1080" zoomAndPan="magnify" viewBox="0 0 810 809.999993" height="1080" preserveAspectRatio="xMidYMid meet" version="1.0"><defs><clipPath id="ad24a0f3ec"><path d="M 181.136719 511.921875 L 242.683594 511.921875 L 242.683594 618.84375 L 181.136719 618.84375 Z M 181.136719 511.921875 " clip-rule="nonzero"/></clipPath><clipPath id="2c8f658287"><path d="M 121.214844 405 L 182.449219 405 L 182.449219 618.84375 L 121.214844 618.84375 Z M 121.214844 405 " clip-rule="nonzero"/></clipPath><clipPath id="2756c94f67"><path d="M 121.214844 450.464844 L 121.214844 618.84375 L 182.449219 618.84375 L 182.449219 450.464844 L 151.832031 405 Z M 121.214844 450.464844 " clip-rule="nonzero"/></clipPath><clipPath id="8d93f18b1d"><path d="M 249.300781 494.410156 L 310.847656 494.410156 L 310.847656 618.84375 L 249.300781 618.84375 Z M 249.300781 494.410156 " clip-rule="nonzero"/></clipPath><clipPath id="a539015728"><path d="M 280.074219 458.800781 L 341.625 458.800781 L 341.625 618.84375 L 280.074219 618.84375 Z M 280.074219 458.800781 " clip-rule="nonzero"/></clipPath><clipPath id="1b33558853"><path d="M 394.683594 538.824219 L 486.136719 538.824219 L 486.136719 618.84375 L 394.683594 618.84375 Z M 394.683594 538.824219 " clip-rule="nonzero"/></clipPath><clipPath id="d335d832d8"><path d="M 492.136719 494.410156 L 553.6875 494.410156 L 553.6875 618.84375 L 492.136719 618.84375 Z M 492.136719 494.410156 " clip-rule="nonzero"/></clipPath><clipPath id="5b7d8cddc8"><path d="M 522.914062 458.800781 L 584.460938 458.800781 L 584.460938 618.84375 L 522.914062 618.84375 Z M 522.914062 458.800781 " clip-rule="nonzero"/></clipPath><clipPath id="b03046cd1f"><path d="M 559.6875 494.410156 L 621.238281 494.410156 L 621.238281 618.84375 L 559.6875 618.84375 Z M 559.6875 494.410156 " clip-rule="nonzero"/></clipPath><clipPath id="bf03b96691"><path d="M 627.238281 494.410156 L 688.789062 494.410156 L 688.789062 618.84375 L 627.238281 618.84375 Z M 627.238281 494.410156 " clip-rule="nonzero"/></clipPath><clipPath id="dad9527bc5"><path d="M 326.628906 175.953125 L 483.367188 175.953125 L 483.367188 332.691406 L 326.628906 332.691406 Z M 326.628906 175.953125 " clip-rule="nonzero"/></clipPath><clipPath id="f785a7d821"><path d="M 405 175.953125 C 361.71875 175.953125 326.628906 211.039062 326.628906 254.320312 C 326.628906 297.601562 361.71875 332.691406 405 332.691406 C 448.28125 332.691406 483.367188 297.601562 483.367188 254.320312 C 483.367188 211.039062 448.28125 175.953125 405 175.953125 Z M 405 175.953125 " clip-rule="nonzero"/></clipPath><clipPath id="3397012d27"><path d="M 347.714844 476.25 L 353.707031 476.25 L 353.707031 482.242188 L 347.714844 482.242188 Z M 347.714844 476.25 " clip-rule="nonzero"/></clipPath><clipPath id="1a9f73aa8e"><path d="M 350.710938 476.25 C 349.054688 476.25 347.714844 477.589844 347.714844 479.246094 C 347.714844 480.898438 349.054688 482.242188 350.710938 482.242188 C 352.367188 482.242188 353.707031 480.898438 353.707031 479.246094 C 353.707031 477.589844 352.367188 476.25 350.710938 476.25 Z M 350.710938 476.25 " clip-rule="nonzero"/></clipPath><clipPath id="a7426c5151"><path d="M 419.929688 508.925781 L 425.921875 508.925781 L 425.921875 514.917969 L 419.929688 514.917969 Z M 419.929688 508.925781 " clip-rule="nonzero"/></clipPath><clipPath id="5802e86088"><path d="M 422.925781 508.925781 C 421.269531 508.925781 419.929688 510.265625 419.929688 511.921875 C 419.929688 513.578125 421.269531 514.917969 422.925781 514.917969 C 424.578125 514.917969 425.921875 513.578125 425.921875 511.921875 C 425.921875 510.265625 424.578125 508.925781 422.925781 508.925781 Z M 422.925781 508.925781 " clip-rule="nonzero"/></clipPath></defs><path stroke-linecap="butt" transform="matrix(-0.75, 0, 0, -0.75, 728.999967, 622.968733)" fill="none" stroke-linejoin="miter" d="M -0.0000442333 5.499977 L 863.999999 5.499977 " stroke="#000000" stroke-width="11" stroke-opacity="1" stroke-miterlimit="4"/><g clip-path="url(#ad24a0f3ec)"><path fill="#000000" d="M 181.136719 511.921875 L 242.683594 511.921875 L 242.683594 618.914062 L 181.136719 618.914062 Z M 181.136719 511.921875 " fill-opacity="1" fill-rule="nonzero"/></g><g clip-path="url(#2c8f658287)"><g clip-path="url(#2756c94f67)"><path fill="#000000" d="M 121.214844 618.84375 L 121.214844 405.003906 L 182.449219 405.003906 L 182.449219 618.84375 Z M 121.214844 618.84375 " fill-opacity="1" fill-rule="nonzero"/></g></g><g clip-path="url(#8d93f18b1d)"><path fill="#000000" d="M 249.300781 494.410156 L 310.847656 494.410156 L 310.847656 618.949219 L 249.300781 618.949219 Z M 249.300781 494.410156 " fill-opacity="1" fill-rule="nonzero"/></g><g clip-path="url(#a539015728)"><path fill="#000000" d="M 280.074219 458.800781 L 341.625 458.800781 L 341.625 618.925781 L 280.074219 618.925781 Z M 280.074219 458.800781 " fill-opacity="1" fill-rule="nonzero"/></g><path stroke-linecap="butt" transform="matrix(0.000000001309, -0.75, 0.75, 0.000000001309, 347.708132, 618.841165)" fill="none" stroke-linejoin="miter" d="M 0.0017615 3.998533 L 186.131979 3.998533 " stroke="#000000" stroke-width="8" stroke-opacity="1" stroke-miterlimit="4"/><path stroke-linecap="butt" transform="matrix(0, -0.75, 0.75, 0, 419.893686, 618.843733)" fill="none" stroke-linejoin="miter" d="M -0.0000228443 4.001127 L 142.562484 4.001127 " stroke="#000000" stroke-width="8" stroke-opacity="1" stroke-miterlimit="4"/><path stroke-linecap="butt" transform="matrix(-0.683249, -0.309306, 0.309306, -0.683249, 421.652262, 514.653978)" fill="none" stroke-linejoin="miter" d="M -0.00187615 3.99954 L 105.646882 4.00234 " stroke="#000000" stroke-width="8" stroke-opacity="1" stroke-miterlimit="4"/><g clip-path="url(#1b33558853)"><path fill="#000000" d="M 394.683594 538.824219 L 486.269531 538.824219 L 486.269531 618.84375 L 394.683594 618.84375 Z M 394.683594 538.824219 " fill-opacity="1" fill-rule="nonzero"/></g><g clip-path="url(#d335d832d8)"><path fill="#000000" d="M 492.136719 494.410156 L 553.6875 494.410156 L 553.6875 618.949219 L 492.136719 618.949219 Z M 492.136719 494.410156 " fill-opacity="1" fill-rule="nonzero"/></g><g clip-path="url(#5b7d8cddc8)"><path fill="#000000" d="M 522.914062 458.800781 L 584.460938 458.800781 L 584.460938 618.925781 L 522.914062 618.925781 Z M 522.914062 458.800781 " fill-opacity="1" fill-rule="nonzero"/></g><g clip-path="url(#b03046cd1f)"><path fill="#000000" d="M 559.6875 494.410156 L 621.238281 494.410156 L 621.238281 618.949219 L 559.6875 618.949219 Z M 559.6875 494.410156 " fill-opacity="1" fill-rule="nonzero"/></g><g clip-path="url(#bf03b96691)"><path fill="#000000" d="M 627.238281 494.410156 L 688.789062 494.410156 L 688.789062 618.949219 L 627.238281 618.949219 Z M 627.238281 494.410156 " fill-opacity="1" fill-rule="nonzero"/></g><g clip-path="url(#dad9527bc5)"><g clip-path="url(#f785a7d821)"><path stroke-linecap="butt" transform="matrix(0.75, 0, 0, 0.75, 326.629881, 175.951653)" fill="none" stroke-linejoin="miter" d="M 104.493491 0.001963 C 46.785158 0.001963 -0.00129922 46.783212 -0.00129922 104.491545 C -0.00129922 162.199877 46.785158 208.986335 104.493491 208.986335 C 162.201824 208.986335 208.983073 162.199877 208.983073 104.491545 C 208.983073 46.783212 162.201824 0.001963 104.493491 0.001963 Z M 104.493491 0.001963 " stroke="#000000" stroke-width="22" stroke-opacity="1" stroke-miterlimit="4"/></g></g><g clip-path="url(#3397012d27)"><g clip-path="url(#1a9f73aa8e)"><path fill="#000000" d="M 347.714844 476.25 L 353.707031 476.25 L 353.707031 482.242188 L 347.714844 482.242188 Z M 347.714844 476.25 " fill-opacity="1" fill-rule="nonzero"/></g></g><g clip-path="url(#a7426c5151)"><g clip-path="url(#5802e86088)"><path fill="#000000" d="M 419.929688 508.925781 L 425.921875 508.925781 L 425.921875 514.917969 L 419.929688 514.917969 Z M 419.929688 508.925781 " fill-opacity="1" fill-rule="nonzero"/></g></g></svg>