<svg xmlns="http://www.w3.org/2000/svg" xmlns:xlink="http://www.w3.org/1999/xlink" width="1080" zoomAndPan="magnify" viewBox="0 0 810 809.999993" height="1080" preserveAspectRatio="xMidYMid meet" version="1.0"><defs><clipPath id="525ae4b086"><path d="M 147.121094 489.734375 L 219.269531 489.734375 L 219.269531 615.070312 L 147.121094 615.070312 Z M 147.121094 489.734375 " clip-rule="nonzero"/></clipPath><clipPath id="3682b0bef5"><path d="M 76 364.121094 L 147.777344 364.121094 L 147.777344 615.066406 L 76 615.066406 Z M 76 364.121094 " clip-rule="nonzero"/></clipPath><clipPath id="a093e7ba71"><path d="M 76 417.691406 L 76 615.066406 L 147.777344 615.066406 L 147.777344 417.691406 L 111.890625 364.398438 Z M 76 417.691406 " clip-rule="nonzero"/></clipPath><clipPath id="63a4c7aa6f"><path d="M 226.144531 469.203125 L 298.292969 469.203125 L 298.292969 615.070312 L 226.144531 615.070312 Z M 226.144531 469.203125 " clip-rule="nonzero"/></clipPath><clipPath id="db3ec18f77"><path d="M 262.21875 427.46875 L 334.367188 427.46875 L 334.367188 615.070312 L 262.21875 615.070312 Z M 262.21875 427.46875 " clip-rule="nonzero"/></clipPath><clipPath id="c000312085"><path d="M 396.566406 521.269531 L 503.769531 521.269531 L 503.769531 615.070312 L 396.566406 615.070312 Z M 396.566406 521.269531 " clip-rule="nonzero"/></clipPath><clipPath id="8af5072128"><path d="M 510.800781 469.203125 L 582.949219 469.203125 L 582.949219 615.070312 L 510.800781 615.070312 Z M 510.800781 469.203125 " clip-rule="nonzero"/></clipPath><clipPath id="a72a16b5ae"><path d="M 546.875 427.46875 L 619.023438 427.46875 L 619.023438 615.070312 L 546.875 615.070312 Z M 546.875 427.46875 " clip-rule="nonzero"/></clipPath><clipPath id="81e164b913"><path d="M 582.949219 469.203125 L 655.097656 469.203125 L 655.097656 615.070312 L 582.949219 615.070312 Z M 582.949219 469.203125 " clip-rule="nonzero"/></clipPath><clipPath id="f9545d4ff1"><path d="M 661.847656 469.203125 L 733.996094 469.203125 L 733.996094 615.070312 L 661.847656 615.070312 Z M 661.847656 469.203125 " clip-rule="nonzero"/></clipPath><clipPath id="4ed54b528c"><path d="M 341.296875 447.707031 L 348.746094 447.707031 L 348.746094 455.15625 L 341.296875 455.15625 Z M 341.296875 447.707031 " clip-rule="nonzero"/></clipPath><clipPath id="4467e87ff6"><path d="M 345.019531 447.707031 C 342.964844 447.707031 341.296875 449.375 341.296875 451.429688 C 341.296875 453.488281 342.964844 455.15625 345.019531 455.15625 C 347.078125 455.15625 348.746094 453.488281 348.746094 451.429688 C 348.746094 449.375 347.078125 447.707031 345.019531 447.707031 Z M 345.019531 447.707031 " clip-rule="nonzero"/></clipPath><clipPath id="bd319494fe"><path d="M 425.90625 486.007812 L 433.359375 486.007812 L 433.359375 493.460938 L 425.90625 493.460938 Z M 425.90625 486.007812 " clip-rule="nonzero"/></clipPath><clipPath id="e25757f896"><path d="M 429.632812 486.007812 C 427.574219 486.007812 425.90625 487.675781 425.90625 489.734375 C 425.90625 491.792969 427.574219 493.460938 429.632812 493.460938 C 431.691406 493.460938 433.359375 491.792969 433.359375 489.734375 C 433.359375 487.675781 431.691406 486.007812 429.632812 486.007812 Z M 429.632812 486.007812 " clip-rule="nonzero"/></clipPath><clipPath id="4ba2757937"><path d="M 318 194 L 494 194 L 494 370.878906 L 318 370.878906 Z M 318 194 " clip-rule="nonzero"/></clipPath></defs><path stroke-linecap="butt" transform="matrix(-0.75, 0, 0, -0.75, 784.792404, 619.943893)" fill="none" stroke-linejoin="miter" d="M -0.000752976 6.498107 L 1012.780548 6.498107 " stroke="#000000" stroke-width="13" stroke-opacity="1" stroke-miterlimit="4"/><g clip-path="url(#525ae4b086)"><path fill="#000000" d="M 147.121094 489.734375 L 219.269531 489.734375 L 219.269531 615.148438 L 147.121094 615.148438 Z M 147.121094 489.734375 " fill-opacity="1" fill-rule="nonzero"/></g><g clip-path="url(#3682b0bef5)"><g clip-path="url(#a093e7ba71)"><path fill="#000000" d="M 76 615.066406 L 76 364.402344 L 147.777344 364.402344 L 147.777344 615.066406 Z M 76 615.066406 " fill-opacity="1" fill-rule="nonzero"/></g></g><g clip-path="url(#63a4c7aa6f)"><path fill="#000000" d="M 226.144531 469.203125 L 298.292969 469.203125 L 298.292969 615.191406 L 226.144531 615.191406 Z M 226.144531 469.203125 " fill-opacity="1" fill-rule="nonzero"/></g><g clip-path="url(#db3ec18f77)"><path fill="#000000" d="M 262.21875 427.46875 L 334.367188 427.46875 L 334.367188 615.167969 L 262.21875 615.167969 Z M 262.21875 427.46875 " fill-opacity="1" fill-rule="nonzero"/></g><path stroke-linecap="butt" transform="matrix(0.000000001309, -0.75, 0.75, 0.000000001309, 341.265572, 615.064213)" fill="none" stroke-linejoin="miter" d="M 0.00228408 5.000071 L 218.184587 5.000071 " stroke="#000000" stroke-width="10" stroke-opacity="1" stroke-miterlimit="4"/><path stroke-linecap="butt" transform="matrix(0, -0.75, 0.75, 0, 425.882238, 615.067717)" fill="none" stroke-linejoin="miter" d="M 0.00174774 5.000766 L 167.111131 5.000766 " stroke="#000000" stroke-width="10" stroke-opacity="1" stroke-miterlimit="4"/><path stroke-linecap="butt" transform="matrix(-0.683249, -0.309306, 0.309306, -0.683249, 428.078862, 493.149379)" fill="none" stroke-linejoin="miter" d="M -0.00020871 4.998275 L 123.839525 4.998771 " stroke="#000000" stroke-width="10" stroke-opacity="1" stroke-miterlimit="4"/><g clip-path="url(#c000312085)"><path fill="#000000" d="M 396.566406 521.269531 L 503.921875 521.269531 L 503.921875 615.070312 L 396.566406 615.070312 Z M 396.566406 521.269531 " fill-opacity="1" fill-rule="nonzero"/></g><g clip-path="url(#8af5072128)"><path fill="#000000" d="M 510.800781 469.203125 L 582.949219 469.203125 L 582.949219 615.191406 L 510.800781 615.191406 Z M 510.800781 469.203125 " fill-opacity="1" fill-rule="nonzero"/></g><g clip-path="url(#a72a16b5ae)"><path fill="#000000" d="M 546.875 427.46875 L 619.023438 427.46875 L 619.023438 615.167969 L 546.875 615.167969 Z M 546.875 427.46875 " fill-opacity="1" fill-rule="nonzero"/></g><g clip-path="url(#81e164b913)"><path fill="#000000" d="M 582.949219 469.203125 L 655.097656 469.203125 L 655.097656 615.191406 L 582.949219 615.191406 Z M 582.949219 469.203125 " fill-opacity="1" fill-rule="nonzero"/></g><g clip-path="url(#f9545d4ff1)"><path fill="#000000" d="M 661.847656 469.203125 L 733.996094 469.203125 L 733.996094 615.191406 L 661.847656 615.191406 Z M 661.847656 469.203125 " fill-opacity="1" fill-rule="nonzero"/></g><g clip-path="url(#4ed54b528c)"><g clip-path="url(#4467e87ff6)"><path fill="#000000" d="M 341.296875 447.707031 L 348.746094 447.707031 L 348.746094 455.15625 L 341.296875 455.15625 Z M 341.296875 447.707031 " fill-opacity="1" fill-rule="nonzero"/></g></g><g clip-path="url(#bd319494fe)"><g clip-path="url(#e25757f896)"><path fill="#000000" d="M 425.90625 486.007812 L 433.359375 486.007812 L 433.359375 493.460938 L 425.90625 493.460938 Z M 425.90625 486.007812 " fill-opacity="1" fill-rule="nonzero"/></g></g><g clip-path="url(#4ba2757937)"><path fill="#000000" d="M 492.429688 303.019531 C 491.496094 302.535156 490.355469 302.707031 489.59375 303.4375 C 473.265625 319.472656 444.34375 321.898438 422.722656 318.816406 C 410.339844 317.050781 397.746094 308.875 389.894531 297.476562 C 383.214844 287.8125 376.46875 271.082031 382.039062 246.105469 C 387.265625 222.757812 401.691406 206.789062 423.796875 199.863281 C 424.867188 199.515625 425.59375 198.476562 425.492188 197.332031 C 425.386719 196.191406 424.523438 195.289062 423.378906 195.152344 C 401.792969 192.378906 382.351562 195.53125 365.539062 204.503906 C 351.632812 211.953125 339.730469 223.175781 330.21875 237.863281 C 322.433594 249.917969 318.214844 265.019531 318.042969 281.578125 C 317.867188 297.167969 321.398438 313.03125 328.003906 326.195312 C 341.148438 352.347656 367.578125 369.007812 398.714844 370.707031 C 400.789062 370.8125 402.796875 370.878906 404.769531 370.878906 C 433.445312 370.878906 453.546875 359.449219 465.585938 349.507812 C 480.253906 337.417969 490.976562 320.582031 493.640625 305.582031 C 493.882812 304.542969 493.363281 303.503906 492.429688 303.019531 Z M 462.539062 345.765625 C 450.328125 355.847656 429.363281 367.519531 398.992188 365.890625 C 369.585938 364.296875 344.679688 348.640625 332.328125 324.046875 C 318.941406 297.339844 319.738281 262.976562 334.300781 240.496094 C 346.960938 220.957031 369.757812 199.066406 408.539062 199.066406 C 409.855469 199.066406 411.167969 199.101562 412.515625 199.136719 C 405.078125 202.703125 398.609375 207.484375 393.25 213.40625 C 385.5 221.929688 380.136719 232.5625 377.335938 245.066406 C 371.351562 271.742188 378.71875 289.789062 385.914062 300.25 C 394.667969 312.925781 408.160156 321.65625 422.066406 323.632812 C 435.488281 325.535156 448.839844 325.257812 460.777344 322.765625 C 471.15625 320.617188 479.941406 316.980469 487.03125 311.921875 C 483.433594 322.140625 475.722656 334.890625 462.539062 345.765625 Z M 462.539062 345.765625 " fill-opacity="1" fill-rule="nonzero"/></g></svg>